<svg width="572.3346069335937px" height="121.39999999999999px" xmlns="http://www.w3.org/2000/svg" viewBox="-36.16730346679685 14.300000000000004 572.3346069335937 121.39999999999999" style="background: none;" preserveAspectRatio="xMidYMid"><defs><filter id="editing-vintage" x="-100%" y="-100%" width="300%" height="300%"><feConvolveMatrix in="SourceGraphic" result="extrude" order="9,9" divisor="1" kernelMatrix="1,0,0,0,0,0,0,0,0,0,1,0,0,0,0,0,0,0,0,0,1,0,0,0,0,0,0,0,0,0,1,0,0,0,0,0,0,0,0,0,1,0,0,0,0,0,0,0,0,0,1,0,0,0,0,0,0,0,0,0,1,0,0,0,0,0,0,0,0,0,1,0,0,0,0,0,0,0,0,0,1"> </feConvolveMatrix><feFlood flood-color="#900" result="flood-extrude"></feFlood><feComposite operator="in" in="flood-extrude" in2="extrude" result="extrude-color"></feComposite><feOffset dx="5" dy="5" in="extrude-color" result="extrude-offset"></feOffset><feColorMatrix in="SourceGraphic" result="stroke" type="matrix" values="0 0 0 0 0 0 0 0 0 0 0 0 0 0 0 0 1 0 0 0 "></feColorMatrix><feColorMatrix in="SourceGraphic" result="fill" type="matrix" values="0 0 0 0 0 0 0 0 0 0 0 0 0 0 0 1 0 0 1 0 "></feColorMatrix><feConvolveMatrix in="stroke" result="inner-shadow" order="5,5" divisor="1" kernelMatrix="1 0 0 0 0 0 1 0 0 0 0 0 1 0 0 0 0 0 1 0 0 0 0 0 1 "></feConvolveMatrix><feOffset dx="1" dy="1" in="inner-shadow" result="offset"></feOffset><feComposite operator="in" in="offset" in2="SourceAlpha" result="comp"></feComposite><feFlood flood-color="#000" result="flood3"></feFlood><feComposite operator="in" in="flood3" in2="comp" result="comp2"></feComposite><feColorMatrix in="comp2" result="comp3" type="matrix" values="1 0 0 0 0 0 1 0 0 0 0 0 1 0 0 0 0 0 0.5 0 "></feColorMatrix><feFlood flood-color="#f00" result="flood1"></feFlood><feComposite operator="in" in="flood1" in2="fill" result="fill2"></feComposite><feFlood flood-color="#fff" result="flood2"></feFlood><feComposite operator="in" in="flood2" in2="stroke" result="stroke2"></feComposite><feMerge result="obj"><feMergeNode in="extrude-offset"></feMergeNode><feMergeNode in="fill2"></feMergeNode><feMergeNode in="comp3"></feMergeNode></feMerge><feConvolveMatrix in="SourceAlpha" result="shadow" order="9,9" divisor="1" kernelMatrix="1,0,0,0,0,0,0,0,0,0,1,0,0,0,0,0,0,0,0,0,1,0,0,0,0,0,0,0,0,0,1,0,0,0,0,0,0,0,0,0,1,0,0,0,0,0,0,0,0,0,1,0,0,0,0,0,0,0,0,0,1,0,0,0,0,0,0,0,0,0,1,0,0,0,0,0,0,0,0,0,1"></feConvolveMatrix><feOffset dx="15" dy="15" in="shadow" result="shadow-offset"></feOffset><feFlood flood-color="#444444" result="flood-shadow"></feFlood><feComposite operator="in" in="flood-shadow" in2="shadow-offset" result="shadow-color"></feComposite><feMerge><feMergeNode in="shadow-color"></feMergeNode><feMergeNode in="obj"></feMergeNode></feMerge></filter></defs><g transform="translate(-9,-9)"><g filter="url(#editing-vintage)"><g transform="translate(35.314008712768555, 104.76000022888184)"><path d="M19.71 0L12.35 0L23.94-42.24L37.31-42.24L40.26-18.11L52.16-42.24L63.36-42.24L64.51-10.62L64.51-10.62Q64.77-4.35 67.84-2.43L67.84-2.43L67.84-2.43Q67.14-1.15 65.09 0.06L65.09 0.06L65.09 0.06Q63.04 1.28 60.32 1.28L60.32 1.28L60.32 1.28Q57.60 1.28 56 0.51L56 0.51L56 0.51Q54.40-0.26 53.50-1.54L53.50-1.54L53.50-1.54Q51.90-3.84 51.90-8.26L51.90-8.26L51.90-28.03L39.30 0L31.36 0L26.88-28.74L19.71 0ZM84.54 1.28L84.54 1.28L84.54 1.28Q70.46 1.28 70.46-11.97L70.46-11.97L70.46-11.97Q70.46-21.38 75.65-27.46L75.65-27.46L75.65-27.46Q81.15-33.92 90.69-33.92L90.69-33.92L90.69-33.92Q97.60-33.92 101.12-30.72L101.12-30.72L101.12-30.72Q104.64-27.52 104.64-20.80L104.64-20.80L104.64-20.80Q104.64-10.56 99.14-4.61L99.14-4.61L99.14-4.61Q93.76 1.28 84.54 1.28ZM86.21-26.56L86.21-26.56L86.21-26.56Q85.44-24.83 84.83-22.24L84.83-22.24L84.83-22.24Q84.22-19.65 83.46-15.55L83.46-15.55L83.46-15.55Q82.69-11.46 82.69-6.40L82.69-6.40L82.69-6.40Q82.69-4.74 83.23-3.65L83.23-3.65L83.23-3.65Q83.78-2.56 85.25-2.56L85.25-2.56L85.25-2.56Q86.72-2.56 87.65-3.26L87.65-3.26L87.65-3.26Q88.58-3.97 89.28-5.63L89.28-5.63L89.28-5.63Q90.56-8.58 91.58-14.05L91.58-14.05L91.58-14.05Q92.61-19.52 92.70-21.89L92.70-21.89L92.70-21.89Q92.80-24.26 92.80-26.02L92.80-26.02L92.80-26.02Q92.80-27.78 92.29-28.93L92.29-28.93L92.29-28.93Q91.78-30.08 90.34-30.08L90.34-30.08L90.34-30.08Q88.90-30.08 87.94-29.18L87.94-29.18L87.94-29.18Q86.98-28.29 86.21-26.56ZM131.65-31.55L131.65-31.55L131.65-31.55Q133.76-33.92 137.41-33.92L137.41-33.92L137.41-33.92Q139.65-33.92 141.38-32.70L141.38-32.70L141.38-32.70Q143.10-31.49 143.10-29.22L143.10-29.22L143.10-29.22Q143.10-26.94 142.40-24.51L142.40-24.51L142.40-24.51Q141.70-22.08 140.61-19.58L140.61-19.58L140.61-19.58Q138.43-14.72 135.42-10.69L135.42-10.69L135.42-10.69Q131.20-4.86 127.14-1.79L127.14-1.79L127.14-1.79Q123.07 1.28 118.66 1.28L118.66 1.28L118.66 1.28Q115.07 1.28 112.90 0.45L112.90 0.45L112.90 0.45Q112.51-12.99 112.03-17.79L112.03-17.79L112.03-17.79Q111.55-22.59 111.17-25.22L111.17-25.22L111.17-25.22Q110.53-30.34 108.61-31.55L108.61-31.55L108.61-31.55Q110.08-32.83 111.52-33.38L111.52-33.38L111.52-33.38Q112.96-33.92 115.94-33.92L115.94-33.92L115.94-33.92Q118.91-33.92 121.02-31.58L121.02-31.58L121.02-31.58Q123.14-29.25 123.55-25.12L123.55-25.12L123.55-25.12Q123.97-20.99 123.97-16L123.97-16L123.97-16Q123.97-11.01 123.58-4.99L123.58-4.99L123.58-4.99Q125.57-6.40 127.68-10.69L127.68-10.69L127.68-10.69Q130.56-16.64 131.58-23.81L131.58-23.81L131.58-23.81Q131.90-25.98 131.90-28.29L131.90-28.29L131.90-28.29Q131.90-30.59 131.65-31.55ZM160.19-3.52L160.19-3.52L160.19-3.52Q158.21 1.28 151.87 1.28L151.87 1.28L151.87 1.28Q148.61 1.28 146.56-0.96L146.56-0.96L146.56-0.96Q144.83-2.94 144.83-4.93L144.83-4.93L144.83-4.93Q144.83-10.11 147.20-20.22L147.20-20.22L149.57-32.64L162.56-33.92L158.66-13.70L158.66-13.70Q157.57-8.96 157.57-7.30L157.57-7.30L157.57-7.30Q157.57-3.65 160.19-3.52ZM150.72-41.54L150.72-41.54L150.72-41.54Q150.72-44.03 152.80-45.38L152.80-45.38L152.80-45.38Q154.88-46.72 157.89-46.72L157.89-46.72L157.89-46.72Q160.90-46.72 162.72-45.38L162.72-45.38L162.72-45.38Q164.54-44.03 164.54-41.54L164.54-41.54L164.54-41.54Q164.54-39.04 162.53-37.76L162.53-37.76L162.53-37.76Q160.51-36.48 157.50-36.48L157.50-36.48L157.50-36.48Q154.50-36.48 152.61-37.76L152.61-37.76L152.61-37.76Q150.72-39.04 150.72-41.54ZM191.55-10.82L191.55-10.82L191.55-10.82Q193.15-9.73 193.15-7.33L193.15-7.33L193.15-7.33Q193.15-4.93 191.94-3.39L191.94-3.39L191.94-3.39Q190.72-1.86 188.74-0.83L188.74-0.83L188.74-0.83Q184.64 1.28 180.22 1.28L180.22 1.28L180.22 1.28Q175.81 1.28 173.22 0.32L173.22 0.32L173.22 0.32Q170.62-0.64 168.90-2.43L168.90-2.43L168.90-2.43Q165.50-5.82 165.50-12.03L165.50-12.03L165.50-12.03Q165.50-21.70 170.75-27.58L170.75-27.58L170.75-27.58Q176.38-33.92 186.18-33.92L186.18-33.92L186.18-33.92Q192.26-33.92 195.26-31.36L195.26-31.36L195.26-31.36Q197.50-29.44 197.50-26.30L197.50-26.30L197.50-26.30Q197.50-15.04 178.05-15.04L178.05-15.04L178.05-15.04Q177.79-13.38 177.79-11.97L177.79-11.97L177.79-11.97Q177.79-9.02 179.10-7.90L179.10-7.90L179.10-7.90Q180.42-6.78 182.85-6.78L182.85-6.78L182.85-6.78Q185.28-6.78 187.87-7.90L187.87-7.90L187.87-7.90Q190.46-9.02 191.55-10.82ZM178.50-17.79L178.50-17.79L178.50-17.79Q183.04-17.79 185.66-20.61L185.66-20.61L185.66-20.61Q188.29-23.30 188.29-27.58L188.29-27.58L188.29-27.58Q188.29-29.06 187.74-29.86L187.74-29.86L187.74-29.86Q187.20-30.66 186.11-30.66L186.11-30.66L186.11-30.66Q185.02-30.66 184.10-30.24L184.10-30.24L184.10-30.24Q183.17-29.82 182.21-28.42L182.21-28.42L182.21-28.42Q179.84-25.22 178.50-17.79ZM239.62-9.86L239.62-9.86L239.62-9.86Q240.83-8.32 240.83-5.34L240.83-5.34L240.83-5.34Q240.83-2.37 238.56-0.54L238.56-0.54L238.56-0.54Q236.29 1.28 232.32 1.28L232.32 1.28L232.32 1.28Q230.02 1.28 226.43 0.77L226.43 0.77L226.43 0.77Q219.39-0.32 217.38-0.32L217.38-0.32L217.38-0.32Q215.36-0.32 214.53-0.22L214.53-0.22L214.53-0.22Q213.70-0.13 212.35 0L212.35 0L220.10-42.24L234.11-42.24L227.71-7.04L227.71-7.04Q228.54-6.91 229.31-6.91L229.31-6.91L230.91-6.91L230.91-6.91Q236.29-6.91 239.62-9.86ZM260.48-3.52L260.48-3.52L260.48-3.52Q258.50 1.28 252.16 1.28L252.16 1.28L252.16 1.28Q248.90 1.28 246.85-0.96L246.85-0.96L246.85-0.96Q245.12-2.94 245.12-4.93L245.12-4.93L245.12-4.93Q245.12-10.11 247.49-20.22L247.49-20.22L249.86-32.64L262.85-33.92L258.94-13.70L258.94-13.70Q257.86-8.96 257.86-7.30L257.86-7.30L257.86-7.30Q257.86-3.65 260.48-3.52ZM251.01-41.54L251.01-41.54L251.01-41.54Q251.01-44.03 253.09-45.38L253.09-45.38L253.09-45.38Q255.17-46.72 258.18-46.72L258.18-46.72L258.18-46.72Q261.18-46.72 263.01-45.38L263.01-45.38L263.01-45.38Q264.83-44.03 264.83-41.54L264.83-41.54L264.83-41.54Q264.83-39.04 262.82-37.76L262.82-37.76L262.82-37.76Q260.80-36.48 257.79-36.48L257.79-36.48L257.79-36.48Q254.78-36.48 252.90-37.76L252.90-37.76L252.90-37.76Q251.01-39.04 251.01-41.54ZM292.99 1.28L292.99 1.28L292.99 1.28Q285.25 1.28 285.25-4.74L285.25-4.74L285.25-4.74Q285.31-6.40 285.82-9.22L285.82-9.22L286.98-15.10L286.98-15.10Q288.70-23.42 288.70-25.28L288.70-25.28L288.70-25.28Q288.70-28.99 286.53-28.99L286.53-28.99L286.53-28.99Q282.88-28.99 280.96-19.46L280.96-19.46L277.18 0L264.32 1.28L270.98-32.70L281.47-33.92L280.45-27.65L280.45-27.65Q283.46-33.92 292.67-33.92L292.67-33.92L292.67-33.92Q297.15-33.92 299.04-32.03L299.04-32.03L299.04-32.03Q300.93-30.14 300.93-25.92L300.93-25.92L300.93-25.92Q300.93-21.95 298.88-12.67L298.88-12.67L298.88-12.67Q297.92-8.51 297.92-6.94L297.92-6.94L297.92-6.94Q297.92-5.38 298.78-4.48L298.78-4.48L298.78-4.48Q299.65-3.58 300.93-3.46L300.93-3.46L300.93-3.46Q300.29-1.28 298.08 0L298.08 0L298.08 0Q295.87 1.28 292.99 1.28ZM331.97-10.82L331.97-10.82L331.97-10.82Q333.57-9.73 333.57-7.33L333.57-7.33L333.57-7.33Q333.57-4.93 332.35-3.39L332.35-3.39L332.35-3.39Q331.14-1.86 329.15-0.83L329.15-0.83L329.15-0.83Q325.06 1.28 320.64 1.28L320.64 1.28L320.64 1.28Q316.22 1.28 313.63 0.32L313.63 0.32L313.63 0.32Q311.04-0.64 309.31-2.43L309.31-2.43L309.31-2.43Q305.92-5.82 305.92-12.03L305.92-12.03L305.92-12.03Q305.92-21.70 311.17-27.58L311.17-27.58L311.17-27.58Q316.80-33.92 326.59-33.92L326.59-33.92L326.59-33.92Q332.67-33.92 335.68-31.36L335.68-31.36L335.68-31.36Q337.92-29.44 337.92-26.30L337.92-26.30L337.92-26.30Q337.92-15.04 318.46-15.04L318.46-15.04L318.46-15.04Q318.21-13.38 318.21-11.97L318.21-11.97L318.21-11.97Q318.21-9.02 319.52-7.90L319.52-7.90L319.52-7.90Q320.83-6.78 323.26-6.78L323.26-6.78L323.26-6.78Q325.70-6.78 328.29-7.90L328.29-7.90L328.29-7.90Q330.88-9.02 331.97-10.82ZM318.91-17.79L318.91-17.79L318.91-17.79Q323.46-17.79 326.08-20.61L326.08-20.61L326.08-20.61Q328.70-23.30 328.70-27.58L328.70-27.58L328.70-27.58Q328.70-29.06 328.16-29.86L328.16-29.86L328.16-29.86Q327.62-30.66 326.53-30.66L326.53-30.66L326.53-30.66Q325.44-30.66 324.51-30.24L324.51-30.24L324.51-30.24Q323.58-29.82 322.62-28.42L322.62-28.42L322.62-28.42Q320.26-25.22 318.91-17.79ZM360.64-2.69L360.64-2.69L360.64-2.69Q357.57 1.28 349.95 1.28L349.95 1.28L349.95 1.28Q345.98 1.28 343.10-1.12L343.10-1.12L343.10-1.12Q340.22-3.52 340.22-6.98L340.22-6.98L340.22-6.98Q340.22-8.90 340.42-9.86L340.42-9.86L344.70-32.64L357.70-33.92L353.02-9.22L353.02-9.22Q352.77-7.81 352.77-6.98L352.77-6.98L352.77-6.98Q352.77-3.26 355.01-3.26L355.01-3.26L355.01-3.26Q357.50-3.26 359.30-6.66L359.30-6.66L359.30-6.66Q359.87-7.74 360.13-9.15L360.13-9.15L364.67-32.64L377.28-33.92L372.54-8.96L372.54-8.96Q372.35-8 372.35-6.98L372.35-6.98L372.35-6.98Q372.35-5.95 372.93-4.83L372.93-4.83L372.93-4.83Q373.50-3.71 375.36-3.46L375.36-3.46L375.36-3.46Q374.98-1.92 373.63-0.90L373.63-0.90L373.63-0.90Q370.82 1.28 367.78 1.28L367.78 1.28L367.78 1.28Q364.74 1.28 362.94 0.19L362.94 0.19L362.94 0.19Q361.15-0.90 360.64-2.69ZM410.56-4.38L410.56-4.38L410.56-4.38Q407.87-1.66 404.19-0.19L404.19-0.19L404.19-0.19Q400.51 1.28 396.86 1.28L396.86 1.28L396.86 1.28Q393.22 1.28 391.94 0.64L391.94 0.64L389.95 11.52L376.96 12.80L385.79-32.64L396.22-33.73L395.39-29.31L395.39-29.31Q398.08-33.86 403.65-33.86L403.65-33.86L403.65-33.86Q409.92-33.86 413.25-29.82L413.25-29.82L413.25-29.82Q416.19-26.18 416.19-20.61L416.19-20.61L416.19-20.61Q416.19-15.04 414.72-11.07L414.72-11.07L414.72-11.07Q413.25-7.10 410.56-4.38ZM396.10-22.34L392.70-3.58L392.70-3.58Q394.05-2.43 395.71-2.43L395.71-2.43L395.71-2.43Q397.38-2.43 398.34-3.07L398.34-3.07L398.34-3.07Q399.30-3.71 400.00-4.99L400.00-4.99L400.00-4.99Q401.92-8.45 403.46-18.94L403.46-18.94L403.46-18.94Q403.90-22.02 403.90-25.02L403.90-25.02L403.90-25.02Q403.90-28.03 403.23-28.99L403.23-28.99L403.23-28.99Q402.56-29.95 401.28-29.95L401.28-29.95L401.28-29.95Q397.38-29.95 396.10-22.34L396.10-22.34Z" fill="#f00" stroke="#0f0" stroke-width="1.8"></path></g></g><g><g transform="translate(35.31396675109863, 104.76000022888184)"><path d="M19.71 0L12.35 0L23.94-42.24L37.31-42.24L40.26-18.11L52.16-42.24L63.36-42.24L64.51-10.62L64.51-10.62Q64.77-4.35 67.84-2.43L67.84-2.43L67.84-2.43Q67.14-1.15 65.09 0.06L65.09 0.06L65.09 0.06Q63.04 1.28 60.32 1.28L60.32 1.28L60.32 1.28Q57.60 1.28 56 0.51L56 0.51L56 0.51Q54.40-0.26 53.50-1.54L53.50-1.54L53.50-1.54Q51.90-3.84 51.90-8.26L51.90-8.26L51.90-28.03L39.30 0L31.36 0L26.88-28.74L19.71 0ZM84.54 1.28L84.54 1.28L84.54 1.28Q70.46 1.28 70.46-11.97L70.46-11.97L70.46-11.97Q70.46-21.38 75.65-27.46L75.65-27.46L75.65-27.46Q81.15-33.92 90.69-33.92L90.69-33.92L90.69-33.92Q97.60-33.92 101.12-30.72L101.12-30.72L101.12-30.72Q104.64-27.52 104.64-20.80L104.64-20.80L104.64-20.80Q104.64-10.56 99.14-4.61L99.14-4.61L99.14-4.61Q93.76 1.28 84.54 1.28ZM86.21-26.56L86.21-26.56L86.21-26.56Q85.44-24.83 84.83-22.24L84.83-22.24L84.83-22.24Q84.22-19.65 83.46-15.55L83.46-15.55L83.46-15.55Q82.69-11.46 82.69-6.40L82.69-6.40L82.69-6.40Q82.69-4.74 83.23-3.65L83.23-3.65L83.23-3.65Q83.78-2.56 85.25-2.56L85.25-2.56L85.25-2.56Q86.72-2.56 87.65-3.26L87.65-3.26L87.65-3.26Q88.58-3.97 89.28-5.63L89.28-5.63L89.28-5.63Q90.56-8.58 91.58-14.05L91.58-14.05L91.58-14.05Q92.61-19.52 92.70-21.89L92.70-21.89L92.70-21.89Q92.80-24.26 92.80-26.02L92.80-26.02L92.80-26.02Q92.80-27.78 92.29-28.93L92.29-28.93L92.29-28.93Q91.78-30.08 90.34-30.08L90.34-30.08L90.34-30.08Q88.90-30.08 87.94-29.18L87.94-29.18L87.94-29.18Q86.98-28.29 86.21-26.56ZM131.65-31.55L131.65-31.55L131.65-31.55Q133.76-33.92 137.41-33.92L137.41-33.92L137.41-33.92Q139.65-33.92 141.38-32.70L141.38-32.70L141.38-32.70Q143.10-31.49 143.10-29.22L143.10-29.22L143.10-29.22Q143.10-26.94 142.40-24.51L142.40-24.51L142.40-24.51Q141.70-22.08 140.61-19.58L140.61-19.58L140.61-19.58Q138.43-14.72 135.42-10.69L135.42-10.69L135.42-10.69Q131.20-4.86 127.14-1.79L127.14-1.79L127.14-1.79Q123.07 1.28 118.66 1.28L118.66 1.28L118.66 1.28Q115.07 1.28 112.90 0.45L112.90 0.45L112.90 0.45Q112.51-12.99 112.03-17.79L112.03-17.79L112.03-17.79Q111.55-22.59 111.17-25.22L111.17-25.22L111.17-25.22Q110.53-30.34 108.61-31.55L108.61-31.55L108.61-31.55Q110.08-32.83 111.52-33.38L111.52-33.38L111.52-33.38Q112.96-33.92 115.94-33.92L115.94-33.92L115.94-33.92Q118.91-33.92 121.02-31.58L121.02-31.58L121.02-31.58Q123.14-29.25 123.55-25.12L123.55-25.12L123.55-25.12Q123.97-20.99 123.97-16L123.97-16L123.97-16Q123.97-11.01 123.58-4.99L123.58-4.99L123.58-4.99Q125.57-6.40 127.68-10.69L127.68-10.69L127.68-10.69Q130.56-16.64 131.58-23.81L131.58-23.81L131.58-23.81Q131.90-25.98 131.90-28.29L131.90-28.29L131.90-28.29Q131.90-30.59 131.65-31.55ZM160.19-3.52L160.19-3.52L160.19-3.52Q158.21 1.28 151.87 1.28L151.87 1.28L151.87 1.28Q148.61 1.28 146.56-0.96L146.56-0.96L146.56-0.96Q144.83-2.94 144.83-4.93L144.83-4.93L144.83-4.93Q144.83-10.11 147.20-20.22L147.20-20.22L149.57-32.64L162.56-33.92L158.66-13.70L158.66-13.70Q157.57-8.96 157.57-7.30L157.57-7.30L157.57-7.30Q157.57-3.65 160.19-3.52ZM150.72-41.54L150.72-41.54L150.72-41.54Q150.72-44.03 152.80-45.38L152.80-45.38L152.80-45.38Q154.88-46.72 157.89-46.72L157.89-46.72L157.89-46.72Q160.90-46.72 162.72-45.38L162.72-45.38L162.72-45.38Q164.54-44.03 164.54-41.54L164.54-41.54L164.54-41.54Q164.54-39.04 162.53-37.76L162.53-37.76L162.53-37.76Q160.51-36.48 157.50-36.48L157.50-36.48L157.50-36.48Q154.50-36.48 152.61-37.76L152.61-37.76L152.61-37.76Q150.72-39.04 150.72-41.54ZM191.55-10.82L191.55-10.82L191.55-10.82Q193.15-9.73 193.15-7.33L193.15-7.33L193.15-7.33Q193.15-4.93 191.94-3.39L191.94-3.39L191.94-3.39Q190.72-1.86 188.74-0.83L188.74-0.83L188.74-0.83Q184.64 1.28 180.22 1.28L180.22 1.28L180.22 1.28Q175.81 1.28 173.22 0.32L173.22 0.32L173.22 0.32Q170.62-0.64 168.90-2.43L168.90-2.43L168.90-2.43Q165.50-5.82 165.50-12.03L165.50-12.03L165.50-12.03Q165.50-21.70 170.75-27.58L170.75-27.58L170.75-27.58Q176.38-33.92 186.18-33.92L186.18-33.92L186.18-33.92Q192.26-33.92 195.26-31.36L195.26-31.36L195.26-31.36Q197.50-29.44 197.50-26.30L197.50-26.30L197.50-26.30Q197.50-15.04 178.05-15.04L178.05-15.04L178.05-15.04Q177.79-13.38 177.79-11.97L177.79-11.97L177.79-11.97Q177.79-9.02 179.10-7.90L179.10-7.90L179.10-7.90Q180.42-6.78 182.85-6.78L182.85-6.78L182.85-6.78Q185.28-6.78 187.87-7.90L187.87-7.90L187.87-7.90Q190.46-9.02 191.55-10.82ZM178.50-17.79L178.50-17.79L178.50-17.79Q183.04-17.79 185.66-20.61L185.66-20.61L185.66-20.61Q188.29-23.30 188.29-27.58L188.29-27.58L188.29-27.58Q188.29-29.06 187.74-29.86L187.74-29.86L187.74-29.86Q187.20-30.66 186.11-30.66L186.11-30.66L186.11-30.66Q185.02-30.66 184.10-30.24L184.10-30.24L184.10-30.24Q183.17-29.82 182.21-28.42L182.21-28.42L182.21-28.42Q179.84-25.22 178.50-17.79ZM239.62-9.86L239.62-9.86L239.62-9.86Q240.83-8.32 240.83-5.34L240.83-5.34L240.83-5.34Q240.83-2.37 238.56-0.54L238.56-0.54L238.56-0.54Q236.29 1.28 232.32 1.28L232.32 1.28L232.32 1.28Q230.02 1.28 226.43 0.77L226.43 0.77L226.43 0.77Q219.39-0.32 217.38-0.32L217.38-0.32L217.38-0.32Q215.36-0.32 214.53-0.22L214.53-0.22L214.53-0.22Q213.70-0.13 212.35 0L212.35 0L220.10-42.24L234.11-42.24L227.71-7.04L227.71-7.04Q228.54-6.91 229.31-6.91L229.31-6.91L230.91-6.91L230.91-6.91Q236.29-6.91 239.62-9.86ZM260.48-3.52L260.48-3.52L260.48-3.52Q258.50 1.28 252.16 1.28L252.16 1.28L252.16 1.28Q248.90 1.28 246.85-0.96L246.85-0.96L246.85-0.96Q245.12-2.94 245.12-4.93L245.12-4.93L245.12-4.93Q245.12-10.11 247.49-20.22L247.49-20.22L249.86-32.64L262.85-33.92L258.94-13.70L258.94-13.70Q257.86-8.96 257.86-7.30L257.86-7.30L257.86-7.30Q257.86-3.65 260.48-3.52ZM251.01-41.54L251.01-41.54L251.01-41.54Q251.01-44.03 253.09-45.38L253.09-45.38L253.09-45.38Q255.17-46.72 258.18-46.72L258.18-46.72L258.18-46.72Q261.18-46.72 263.01-45.38L263.01-45.38L263.01-45.38Q264.83-44.03 264.83-41.54L264.83-41.54L264.83-41.54Q264.83-39.04 262.82-37.76L262.82-37.76L262.82-37.76Q260.80-36.48 257.79-36.48L257.79-36.48L257.79-36.48Q254.78-36.48 252.90-37.76L252.90-37.76L252.90-37.76Q251.01-39.04 251.01-41.54ZM292.99 1.28L292.99 1.28L292.99 1.28Q285.25 1.28 285.25-4.74L285.25-4.74L285.25-4.74Q285.31-6.40 285.82-9.22L285.82-9.22L286.98-15.10L286.98-15.10Q288.70-23.42 288.70-25.28L288.70-25.28L288.70-25.28Q288.70-28.99 286.53-28.99L286.53-28.99L286.53-28.99Q282.88-28.99 280.96-19.46L280.96-19.46L277.18 0L264.32 1.28L270.98-32.70L281.47-33.92L280.45-27.65L280.45-27.65Q283.46-33.92 292.67-33.92L292.67-33.92L292.67-33.92Q297.15-33.92 299.04-32.03L299.04-32.03L299.04-32.03Q300.93-30.14 300.93-25.92L300.93-25.92L300.93-25.92Q300.93-21.95 298.88-12.67L298.88-12.67L298.88-12.67Q297.92-8.51 297.92-6.94L297.92-6.94L297.92-6.94Q297.92-5.38 298.78-4.48L298.78-4.48L298.78-4.48Q299.65-3.58 300.93-3.46L300.93-3.46L300.93-3.46Q300.29-1.28 298.08 0L298.08 0L298.08 0Q295.87 1.28 292.99 1.28ZM331.97-10.82L331.97-10.82L331.97-10.82Q333.57-9.73 333.57-7.33L333.57-7.33L333.57-7.33Q333.57-4.93 332.35-3.39L332.35-3.39L332.35-3.39Q331.14-1.86 329.15-0.83L329.15-0.83L329.15-0.83Q325.06 1.28 320.64 1.28L320.64 1.28L320.64 1.28Q316.22 1.28 313.63 0.32L313.63 0.32L313.63 0.32Q311.04-0.64 309.31-2.43L309.31-2.43L309.31-2.43Q305.92-5.82 305.92-12.03L305.92-12.03L305.92-12.03Q305.92-21.70 311.17-27.58L311.17-27.58L311.17-27.58Q316.80-33.92 326.59-33.92L326.59-33.92L326.59-33.92Q332.67-33.92 335.68-31.36L335.68-31.36L335.68-31.36Q337.92-29.44 337.92-26.30L337.92-26.30L337.92-26.30Q337.92-15.04 318.46-15.04L318.46-15.04L318.46-15.04Q318.21-13.38 318.21-11.97L318.21-11.97L318.21-11.97Q318.21-9.02 319.52-7.90L319.52-7.90L319.52-7.90Q320.83-6.78 323.26-6.78L323.26-6.78L323.26-6.78Q325.70-6.78 328.29-7.90L328.29-7.90L328.29-7.90Q330.88-9.02 331.97-10.82ZM318.91-17.79L318.91-17.79L318.91-17.79Q323.46-17.79 326.08-20.61L326.08-20.61L326.08-20.61Q328.70-23.30 328.70-27.58L328.70-27.58L328.70-27.58Q328.70-29.06 328.16-29.86L328.16-29.86L328.16-29.86Q327.62-30.66 326.53-30.66L326.53-30.66L326.53-30.66Q325.44-30.66 324.51-30.24L324.51-30.24L324.51-30.24Q323.58-29.82 322.62-28.42L322.62-28.42L322.62-28.42Q320.26-25.22 318.91-17.79ZM360.64-2.69L360.64-2.69L360.64-2.69Q357.57 1.28 349.95 1.28L349.95 1.28L349.95 1.28Q345.98 1.28 343.10-1.12L343.10-1.12L343.10-1.12Q340.22-3.52 340.22-6.98L340.22-6.98L340.22-6.98Q340.22-8.90 340.42-9.86L340.42-9.86L344.70-32.64L357.70-33.92L353.02-9.22L353.02-9.22Q352.77-7.81 352.77-6.98L352.77-6.98L352.77-6.98Q352.77-3.26 355.01-3.26L355.01-3.26L355.01-3.26Q357.50-3.26 359.30-6.66L359.30-6.66L359.30-6.66Q359.87-7.74 360.13-9.15L360.13-9.15L364.67-32.64L377.28-33.92L372.54-8.96L372.54-8.96Q372.35-8 372.35-6.98L372.35-6.98L372.35-6.98Q372.35-5.95 372.93-4.83L372.93-4.83L372.93-4.83Q373.50-3.71 375.36-3.46L375.36-3.46L375.36-3.46Q374.98-1.92 373.63-0.90L373.63-0.90L373.63-0.90Q370.82 1.28 367.78 1.28L367.78 1.28L367.78 1.28Q364.74 1.28 362.94 0.19L362.94 0.19L362.94 0.19Q361.15-0.90 360.64-2.69ZM410.56-4.38L410.56-4.38L410.56-4.38Q407.87-1.66 404.19-0.19L404.19-0.19L404.19-0.19Q400.51 1.28 396.86 1.28L396.86 1.28L396.86 1.28Q393.22 1.28 391.94 0.64L391.94 0.64L389.95 11.52L376.96 12.80L385.79-32.64L396.22-33.73L395.39-29.31L395.39-29.31Q398.08-33.86 403.65-33.86L403.65-33.86L403.65-33.86Q409.92-33.86 413.25-29.82L413.25-29.82L413.25-29.82Q416.19-26.18 416.19-20.61L416.19-20.61L416.19-20.61Q416.19-15.04 414.72-11.07L414.72-11.07L414.72-11.07Q413.25-7.10 410.56-4.38ZM396.10-22.34L392.70-3.58L392.70-3.58Q394.05-2.43 395.71-2.43L395.71-2.43L395.71-2.43Q397.38-2.43 398.34-3.07L398.34-3.07L398.34-3.07Q399.30-3.71 400.00-4.99L400.00-4.99L400.00-4.99Q401.92-8.45 403.46-18.94L403.46-18.94L403.46-18.94Q403.90-22.02 403.90-25.02L403.90-25.02L403.90-25.02Q403.90-28.03 403.23-28.99L403.23-28.99L403.23-28.99Q402.56-29.95 401.28-29.95L401.28-29.95L401.28-29.95Q397.38-29.95 396.10-22.34L396.10-22.34Z" fill="none" stroke="#fff" stroke-width="2.1"></path></g></g></g><style>text {
  font-size: 64px;
  font-family: Arial Black;
  dominant-baseline: central;
  text-anchor: middle;
}</style></svg>