<svg width="554.05625px" height="121.39999999999999px" xmlns="http://www.w3.org/2000/svg" viewBox="-27.02812499999999 14.300000000000004 554.05625 121.39999999999999" style="background: none;" preserveAspectRatio="xMidYMid"><defs><filter id="editing-vintage" x="-100%" y="-100%" width="300%" height="300%"><feConvolveMatrix in="SourceGraphic" result="extrude" order="9,9" divisor="1" kernelMatrix="1,0,0,0,0,0,0,0,0,0,1,0,0,0,0,0,0,0,0,0,1,0,0,0,0,0,0,0,0,0,1,0,0,0,0,0,0,0,0,0,1,0,0,0,0,0,0,0,0,0,1,0,0,0,0,0,0,0,0,0,1,0,0,0,0,0,0,0,0,0,1,0,0,0,0,0,0,0,0,0,1"> </feConvolveMatrix><feFlood flood-color="#900" result="flood-extrude"></feFlood><feComposite operator="in" in="flood-extrude" in2="extrude" result="extrude-color"></feComposite><feOffset dx="5" dy="5" in="extrude-color" result="extrude-offset"></feOffset><feColorMatrix in="SourceGraphic" result="stroke" type="matrix" values="0 0 0 0 0 0 0 0 0 0 0 0 0 0 0 0 1 0 0 0 "></feColorMatrix><feColorMatrix in="SourceGraphic" result="fill" type="matrix" values="0 0 0 0 0 0 0 0 0 0 0 0 0 0 0 1 0 0 1 0 "></feColorMatrix><feConvolveMatrix in="stroke" result="inner-shadow" order="5,5" divisor="1" kernelMatrix="1 0 0 0 0 0 1 0 0 0 0 0 1 0 0 0 0 0 1 0 0 0 0 0 1 "></feConvolveMatrix><feOffset dx="1" dy="1" in="inner-shadow" result="offset"></feOffset><feComposite operator="in" in="offset" in2="SourceAlpha" result="comp"></feComposite><feFlood flood-color="#000" result="flood3"></feFlood><feComposite operator="in" in="flood3" in2="comp" result="comp2"></feComposite><feColorMatrix in="comp2" result="comp3" type="matrix" values="1 0 0 0 0 0 1 0 0 0 0 0 1 0 0 0 0 0 0.5 0 "></feColorMatrix><feFlood flood-color="#f00" result="flood1"></feFlood><feComposite operator="in" in="flood1" in2="fill" result="fill2"></feComposite><feFlood flood-color="#fff" result="flood2"></feFlood><feComposite operator="in" in="flood2" in2="stroke" result="stroke2"></feComposite><feMerge result="obj"><feMergeNode in="extrude-offset"></feMergeNode><feMergeNode in="fill2"></feMergeNode><feMergeNode in="comp3"></feMergeNode></feMerge><feConvolveMatrix in="SourceAlpha" result="shadow" order="9,9" divisor="1" kernelMatrix="1,0,0,0,0,0,0,0,0,0,1,0,0,0,0,0,0,0,0,0,1,0,0,0,0,0,0,0,0,0,1,0,0,0,0,0,0,0,0,0,1,0,0,0,0,0,0,0,0,0,1,0,0,0,0,0,0,0,0,0,1,0,0,0,0,0,0,0,0,0,1,0,0,0,0,0,0,0,0,0,1"></feConvolveMatrix><feOffset dx="15" dy="15" in="shadow" result="shadow-offset"></feOffset><feFlood flood-color="#444444" result="flood-shadow"></feFlood><feComposite operator="in" in="flood-shadow" in2="shadow-offset" result="shadow-color"></feComposite><feMerge><feMergeNode in="shadow-color"></feMergeNode><feMergeNode in="obj"></feMergeNode></feMerge></filter></defs><g transform="translate(-9,-9)"><g filter="url(#editing-vintage)"><g transform="translate(55.474976629018784, 99)"><path d="M14.34 0L0.38 0L8.51-42.24L22.59-42.24L14.34 0ZM51.07 1.28L51.07 1.28L51.07 1.28Q43.33 1.28 43.33-4.74L43.33-4.74L43.33-4.74Q43.39-6.40 43.90-9.22L43.90-9.22L45.06-15.10L45.06-15.10Q46.78-23.42 46.78-25.28L46.78-25.28L46.78-25.28Q46.78-28.99 44.61-28.99L44.61-28.99L44.61-28.99Q40.96-28.99 39.04-19.46L39.04-19.46L35.26 0L22.40 1.28L29.06-32.70L39.55-33.92L38.53-27.65L38.53-27.65Q41.54-33.92 50.75-33.92L50.75-33.92L50.75-33.92Q55.23-33.92 57.12-32.03L57.12-32.03L57.12-32.03Q59.01-30.14 59.01-25.92L59.01-25.92L59.01-25.92Q59.01-21.95 56.96-12.67L56.96-12.67L56.96-12.67Q56-8.51 56-6.94L56-6.94L56-6.94Q56-5.38 56.86-4.48L56.86-4.48L56.86-4.48Q57.73-3.58 59.01-3.46L59.01-3.46L59.01-3.46Q58.37-1.28 56.16 0L56.16 0L56.16 0Q53.95 1.28 51.07 1.28ZM65.15-6.40L65.15-6.40L65.15-6.40Q65.15-8.13 66.05-12.48L66.05-12.48L69.44-29.76L65.66-29.76L65.92-31.68L65.92-31.68Q73.60-33.98 81.02-39.62L81.02-39.62L84.10-39.62L82.56-32.64L87.55-32.64L86.98-29.76L82.05-29.76L78.78-12.48L78.78-12.48Q77.95-8.51 77.95-7.17L77.95-7.17L77.95-7.17Q77.95-4.10 80.64-3.46L80.64-3.46L80.64-3.46Q80-1.28 77.70 0L77.70 0L77.70 0Q75.39 1.28 72.13 1.28L72.13 1.28L72.13 1.28Q68.86 1.28 67.01-0.77L67.01-0.77L67.01-0.77Q65.15-2.82 65.15-6.40ZM107.26-17.98L107.26-17.98L107.26-17.98Q109.57-22.08 109.57-26.24L109.57-26.24L109.57-26.24Q109.57-28.99 107.58-28.99L107.58-28.99L107.58-28.99Q106.05-28.99 104.45-26.37L104.45-26.37L104.45-26.37Q102.78-23.74 102.27-20.35L102.27-20.35L98.94 0L85.70 1.28L92.22-32.64L102.78-33.92L101.63-27.46L101.63-27.46Q104.77-33.92 111.81-33.92L111.81-33.92L111.81-33.92Q115.52-33.92 117.54-32L117.54-32L117.54-32Q119.55-30.08 119.55-26.14L119.55-26.14L119.55-26.14Q119.55-22.21 116.96-19.71L116.96-19.71L116.96-19.71Q114.37-17.22 109.95-17.22L109.95-17.22L109.95-17.22Q108.03-17.22 107.26-17.98ZM134.53 1.28L134.53 1.28L134.53 1.28Q120.45 1.28 120.45-11.97L120.45-11.97L120.45-11.97Q120.45-21.38 125.63-27.46L125.63-27.46L125.63-27.46Q131.14-33.92 140.67-33.92L140.67-33.92L140.67-33.92Q147.58-33.92 151.10-30.72L151.10-30.72L151.10-30.72Q154.62-27.52 154.62-20.80L154.62-20.80L154.62-20.80Q154.62-10.56 149.12-4.61L149.12-4.61L149.12-4.61Q143.74 1.28 134.53 1.28ZM136.19-26.56L136.19-26.56L136.19-26.56Q135.42-24.83 134.82-22.24L134.82-22.24L134.82-22.24Q134.21-19.65 133.44-15.55L133.44-15.55L133.44-15.55Q132.67-11.46 132.67-6.40L132.67-6.40L132.67-6.40Q132.67-4.74 133.22-3.65L133.22-3.65L133.22-3.65Q133.76-2.56 135.23-2.56L135.23-2.56L135.23-2.56Q136.70-2.56 137.63-3.26L137.63-3.26L137.63-3.26Q138.56-3.97 139.26-5.63L139.26-5.63L139.26-5.63Q140.54-8.58 141.57-14.05L141.57-14.05L141.57-14.05Q142.59-19.52 142.69-21.89L142.69-21.89L142.69-21.89Q142.78-24.26 142.78-26.02L142.78-26.02L142.78-26.02Q142.78-27.78 142.27-28.93L142.27-28.93L142.27-28.93Q141.76-30.08 140.32-30.08L140.32-30.08L140.32-30.08Q138.88-30.08 137.92-29.18L137.92-29.18L137.92-29.18Q136.96-28.29 136.19-26.56ZM178.56-33.92L178.56-33.92L178.56-33.92Q180.86-33.92 182.66-33.41L182.66-33.41L182.66-33.41Q182.72-33.66 182.85-34.37L182.85-34.37L183.17-36.35L183.17-36.35Q183.42-37.63 183.81-39.74L183.81-39.74L184.83-44.80L197.57-46.08L190.46-8.96L190.46-8.96Q190.40-8.58 190.40-7.94L190.40-7.94L190.40-6.91L190.40-6.91Q190.40-5.50 191.10-4.45L191.10-4.45L191.10-4.45Q191.81-3.39 192.96-3.39L192.96-3.39L192.96-3.39Q191.68-0.38 187.78 0.90L187.78 0.90L187.78 0.90Q186.43 1.28 184.54 1.28L184.54 1.28L184.54 1.28Q182.66 1.28 180.93 0.29L180.93 0.29L180.93 0.29Q179.20-0.70 178.69-2.37L178.69-2.37L178.69-2.37Q177.66-0.70 175.62 0.29L175.62 0.29L175.62 0.29Q173.57 1.28 170.59 1.28L170.59 1.28L170.59 1.28Q167.62 1.28 165.15 0.51L165.15 0.51L165.15 0.51Q162.69-0.26 161.15-1.92L161.15-1.92L161.15-1.92Q158.34-5.18 158.34-12.61L158.34-12.61L158.34-12.61Q158.34-22.21 163.97-28.03L163.97-28.03L163.97-28.03Q169.60-33.92 178.56-33.92ZM178.11-30.08L178.11-30.08L178.11-30.08Q175.74-30.08 174.46-27.52L174.46-27.52L174.46-27.52Q173.18-24.96 171.87-18.62L171.87-18.62L171.87-18.62Q170.56-12.29 170.56-6.59L170.56-6.59L170.56-6.59Q170.56-2.69 172.86-2.69L172.86-2.69L172.86-2.69Q174.91-2.69 176.35-4.74L176.35-4.74L176.35-4.74Q177.79-6.78 178.37-10.18L178.37-10.18L181.82-28.93L181.82-28.93Q180.48-30.08 178.11-30.08ZM218.94-2.69L218.94-2.69L218.94-2.69Q215.87 1.28 208.26 1.28L208.26 1.28L208.26 1.28Q204.29 1.28 201.41-1.12L201.41-1.12L201.41-1.12Q198.53-3.52 198.53-6.98L198.53-6.98L198.53-6.98Q198.53-8.90 198.72-9.86L198.72-9.86L203.01-32.64L216-33.92L211.33-9.22L211.33-9.22Q211.07-7.81 211.07-6.98L211.07-6.98L211.07-6.98Q211.07-3.26 213.31-3.26L213.31-3.26L213.31-3.26Q215.81-3.26 217.60-6.66L217.60-6.66L217.60-6.66Q218.18-7.74 218.43-9.15L218.43-9.15L222.98-32.64L235.58-33.92L230.85-8.96L230.85-8.96Q230.66-8 230.66-6.98L230.66-6.98L230.66-6.98Q230.66-5.95 231.23-4.83L231.23-4.83L231.23-4.83Q231.81-3.71 233.66-3.46L233.66-3.46L233.66-3.46Q233.28-1.92 231.94-0.90L231.94-0.90L231.94-0.90Q229.12 1.28 226.08 1.28L226.08 1.28L226.08 1.28Q223.04 1.28 221.25 0.19L221.25 0.19L221.25 0.19Q219.46-0.90 218.94-2.69ZM270.21-26.62L270.21-26.62L270.21-26.62Q270.21-23.94 267.97-22.27L267.97-22.27L267.97-22.27Q265.73-20.61 262.08-20.61L262.08-20.61L262.08-20.61Q260.54-20.61 259.65-21.06L259.65-21.06L259.65-21.06Q260.35-22.72 260.58-24.80L260.58-24.80L260.58-24.80Q260.80-26.88 260.80-27.46L260.80-27.46L260.80-27.46Q260.80-30.14 258.94-30.14L258.94-30.14L258.94-30.14Q257.66-30.14 256.22-28.54L256.22-28.54L256.22-28.54Q254.78-26.94 253.57-24.45L253.57-24.45L253.57-24.45Q250.88-18.69 250.88-12.86L250.88-12.86L250.88-12.86Q250.88-9.66 252.10-8.22L252.10-8.22L252.10-8.22Q253.31-6.78 256-6.78L256-6.78L256-6.78Q259.71-6.78 262.66-9.86L262.66-9.86L262.66-9.86Q263.49-10.82 263.94-11.90L263.94-11.90L263.94-11.90Q266.37-10.62 266.37-7.10L266.37-7.10L266.37-7.10Q266.37-3.52 262.40-1.15L262.40-1.15L262.40-1.15Q258.30 1.28 251.78 1.28L251.78 1.28L251.78 1.28Q238.78 1.28 238.78-12.48L238.78-12.48L238.78-12.48Q238.78-22.53 244.48-28.29L244.48-28.29L244.48-28.29Q249.98-33.92 260.10-33.92L260.10-33.92L260.10-33.92Q270.21-33.92 270.21-26.62ZM272.96-6.40L272.96-6.40L272.96-6.40Q272.96-8.13 273.86-12.48L273.86-12.48L277.25-29.76L273.47-29.76L273.73-31.68L273.73-31.68Q281.41-33.98 288.83-39.62L288.83-39.62L291.90-39.62L290.37-32.64L295.36-32.64L294.78-29.76L289.86-29.76L286.59-12.48L286.59-12.48Q285.76-8.51 285.76-7.17L285.76-7.17L285.76-7.17Q285.76-4.10 288.45-3.46L288.45-3.46L288.45-3.46Q287.81-1.28 285.50 0L285.50 0L285.50 0Q283.20 1.28 279.94 1.28L279.94 1.28L279.94 1.28Q276.67 1.28 274.82-0.77L274.82-0.77L274.82-0.77Q272.96-2.82 272.96-6.40ZM310.40-3.52L310.40-3.52L310.40-3.52Q308.42 1.28 302.08 1.28L302.08 1.28L302.08 1.28Q298.82 1.28 296.77-0.96L296.77-0.96L296.77-0.96Q295.04-2.94 295.04-4.93L295.04-4.93L295.04-4.93Q295.04-10.11 297.41-20.22L297.41-20.22L299.78-32.64L312.77-33.92L308.86-13.70L308.86-13.70Q307.78-8.96 307.78-7.30L307.78-7.30L307.78-7.30Q307.78-3.65 310.40-3.52ZM300.93-41.54L300.93-41.54L300.93-41.54Q300.93-44.03 303.01-45.38L303.01-45.38L303.01-45.38Q305.09-46.72 308.10-46.72L308.10-46.72L308.10-46.72Q311.10-46.72 312.93-45.38L312.93-45.38L312.93-45.38Q314.75-44.03 314.75-41.54L314.75-41.54L314.75-41.54Q314.75-39.04 312.74-37.76L312.74-37.76L312.74-37.76Q310.72-36.48 307.71-36.48L307.71-36.48L307.71-36.48Q304.70-36.48 302.82-37.76L302.82-37.76L302.82-37.76Q300.93-39.04 300.93-41.54ZM329.79 1.28L329.79 1.28L329.79 1.28Q315.71 1.28 315.71-11.97L315.71-11.97L315.71-11.97Q315.71-21.38 320.90-27.46L320.90-27.46L320.90-27.46Q326.40-33.92 335.94-33.92L335.94-33.92L335.94-33.92Q342.85-33.92 346.37-30.72L346.37-30.72L346.37-30.72Q349.89-27.52 349.89-20.80L349.89-20.80L349.89-20.80Q349.89-10.56 344.38-4.61L344.38-4.61L344.38-4.61Q339.01 1.28 329.79 1.28ZM331.46-26.56L331.46-26.56L331.46-26.56Q330.69-24.83 330.08-22.24L330.08-22.24L330.08-22.24Q329.47-19.65 328.70-15.55L328.70-15.55L328.70-15.55Q327.94-11.46 327.94-6.40L327.94-6.40L327.94-6.40Q327.94-4.74 328.48-3.65L328.48-3.65L328.48-3.65Q329.02-2.56 330.50-2.56L330.50-2.56L330.50-2.56Q331.97-2.56 332.90-3.26L332.90-3.26L332.90-3.26Q333.82-3.97 334.53-5.63L334.53-5.63L334.53-5.63Q335.81-8.58 336.83-14.05L336.83-14.05L336.83-14.05Q337.86-19.52 337.95-21.89L337.95-21.89L337.95-21.89Q338.05-24.26 338.05-26.02L338.05-26.02L338.05-26.02Q338.05-27.78 337.54-28.93L337.54-28.93L337.54-28.93Q337.02-30.08 335.58-30.08L335.58-30.08L335.58-30.08Q334.14-30.08 333.18-29.18L333.18-29.18L333.18-29.18Q332.22-28.29 331.46-26.56ZM380.74 1.28L380.74 1.28L380.74 1.28Q372.99 1.28 372.99-4.74L372.99-4.74L372.99-4.74Q373.06-6.40 373.57-9.22L373.57-9.22L374.72-15.10L374.72-15.10Q376.45-23.42 376.45-25.28L376.45-25.28L376.45-25.28Q376.45-28.99 374.27-28.99L374.27-28.99L374.27-28.99Q370.62-28.99 368.70-19.46L368.70-19.46L364.93 0L352.06 1.28L358.72-32.70L369.22-33.92L368.19-27.65L368.19-27.65Q371.20-33.92 380.42-33.92L380.42-33.92L380.42-33.92Q384.90-33.92 386.78-32.03L386.78-32.03L386.78-32.03Q388.67-30.14 388.67-25.92L388.67-25.92L388.67-25.92Q388.67-21.95 386.62-12.67L386.62-12.67L386.62-12.67Q385.66-8.51 385.66-6.94L385.66-6.94L385.66-6.94Q385.66-5.38 386.53-4.48L386.53-4.48L386.53-4.48Q387.39-3.58 388.67-3.46L388.67-3.46L388.67-3.46Q388.03-1.28 385.82 0L385.82 0L385.82 0Q383.62 1.28 380.74 1.28Z" fill="#f00" stroke="#0f0" stroke-width="1.8"></path></g></g><g><g transform="translate(55.474957555532455, 99)"><path d="M14.34 0L0.38 0L8.51-42.24L22.59-42.24L14.34 0ZM51.07 1.28L51.07 1.28L51.07 1.28Q43.33 1.28 43.33-4.74L43.33-4.74L43.33-4.74Q43.39-6.40 43.90-9.22L43.90-9.22L45.06-15.10L45.06-15.10Q46.78-23.42 46.78-25.28L46.78-25.28L46.78-25.28Q46.78-28.99 44.61-28.99L44.61-28.99L44.61-28.99Q40.96-28.99 39.04-19.46L39.04-19.46L35.26 0L22.40 1.28L29.06-32.70L39.55-33.92L38.53-27.65L38.53-27.65Q41.54-33.92 50.75-33.92L50.75-33.92L50.75-33.92Q55.23-33.92 57.12-32.03L57.12-32.03L57.12-32.03Q59.01-30.14 59.01-25.92L59.01-25.92L59.01-25.92Q59.01-21.95 56.96-12.67L56.96-12.67L56.96-12.67Q56-8.51 56-6.94L56-6.94L56-6.94Q56-5.38 56.86-4.48L56.86-4.48L56.86-4.48Q57.73-3.58 59.01-3.46L59.01-3.46L59.01-3.46Q58.37-1.28 56.16 0L56.16 0L56.16 0Q53.95 1.28 51.07 1.28ZM65.15-6.40L65.15-6.40L65.15-6.40Q65.15-8.13 66.05-12.48L66.05-12.48L69.44-29.76L65.66-29.76L65.92-31.68L65.92-31.68Q73.60-33.98 81.02-39.62L81.02-39.62L84.10-39.62L82.56-32.64L87.55-32.64L86.98-29.76L82.05-29.76L78.78-12.48L78.78-12.48Q77.95-8.51 77.95-7.17L77.95-7.17L77.95-7.17Q77.95-4.10 80.64-3.46L80.64-3.46L80.64-3.46Q80-1.28 77.70 0L77.70 0L77.70 0Q75.39 1.28 72.13 1.28L72.13 1.28L72.13 1.28Q68.86 1.28 67.01-0.77L67.01-0.77L67.01-0.77Q65.15-2.82 65.15-6.40ZM107.26-17.98L107.26-17.98L107.26-17.98Q109.57-22.08 109.57-26.24L109.57-26.24L109.57-26.24Q109.57-28.99 107.58-28.99L107.58-28.99L107.58-28.99Q106.05-28.99 104.45-26.37L104.45-26.37L104.45-26.37Q102.78-23.74 102.27-20.35L102.27-20.35L98.94 0L85.70 1.28L92.22-32.64L102.78-33.92L101.63-27.46L101.63-27.46Q104.77-33.92 111.81-33.92L111.81-33.92L111.81-33.92Q115.52-33.92 117.54-32L117.54-32L117.54-32Q119.55-30.08 119.55-26.14L119.55-26.14L119.55-26.14Q119.55-22.21 116.96-19.71L116.96-19.71L116.96-19.71Q114.37-17.22 109.95-17.22L109.95-17.22L109.95-17.22Q108.03-17.22 107.26-17.98ZM134.53 1.28L134.53 1.28L134.53 1.28Q120.45 1.28 120.45-11.97L120.45-11.97L120.45-11.97Q120.45-21.38 125.63-27.46L125.63-27.46L125.63-27.46Q131.14-33.92 140.67-33.92L140.67-33.92L140.67-33.92Q147.58-33.92 151.10-30.72L151.10-30.72L151.10-30.72Q154.62-27.52 154.62-20.80L154.62-20.80L154.62-20.80Q154.62-10.56 149.12-4.61L149.12-4.61L149.12-4.61Q143.74 1.28 134.53 1.28ZM136.19-26.56L136.19-26.56L136.19-26.56Q135.42-24.83 134.82-22.24L134.82-22.24L134.82-22.24Q134.21-19.65 133.44-15.55L133.44-15.55L133.44-15.55Q132.67-11.46 132.67-6.40L132.67-6.40L132.67-6.40Q132.67-4.74 133.22-3.65L133.22-3.65L133.22-3.65Q133.76-2.56 135.23-2.56L135.23-2.56L135.23-2.56Q136.70-2.56 137.63-3.26L137.63-3.26L137.63-3.26Q138.56-3.97 139.26-5.63L139.26-5.63L139.26-5.63Q140.54-8.58 141.57-14.05L141.57-14.05L141.57-14.05Q142.59-19.52 142.69-21.89L142.69-21.89L142.69-21.89Q142.78-24.26 142.78-26.02L142.78-26.02L142.78-26.02Q142.78-27.78 142.27-28.93L142.27-28.93L142.27-28.93Q141.76-30.08 140.32-30.08L140.32-30.08L140.32-30.08Q138.88-30.08 137.92-29.18L137.92-29.18L137.92-29.18Q136.96-28.29 136.19-26.56ZM178.56-33.92L178.56-33.92L178.56-33.92Q180.86-33.92 182.66-33.41L182.66-33.41L182.66-33.41Q182.72-33.66 182.85-34.37L182.85-34.37L183.17-36.35L183.17-36.35Q183.42-37.63 183.81-39.74L183.81-39.74L184.83-44.80L197.57-46.08L190.46-8.96L190.46-8.96Q190.40-8.58 190.40-7.94L190.40-7.94L190.40-6.91L190.40-6.91Q190.40-5.50 191.10-4.45L191.10-4.45L191.10-4.45Q191.81-3.39 192.96-3.39L192.96-3.39L192.96-3.39Q191.68-0.38 187.78 0.90L187.78 0.90L187.78 0.90Q186.43 1.28 184.54 1.28L184.54 1.28L184.54 1.28Q182.66 1.28 180.93 0.29L180.93 0.29L180.93 0.29Q179.20-0.70 178.69-2.37L178.69-2.37L178.69-2.37Q177.66-0.70 175.62 0.29L175.62 0.29L175.62 0.29Q173.57 1.28 170.59 1.28L170.59 1.28L170.59 1.28Q167.62 1.28 165.15 0.51L165.15 0.51L165.15 0.51Q162.69-0.26 161.15-1.92L161.15-1.92L161.15-1.92Q158.34-5.18 158.34-12.61L158.34-12.61L158.34-12.61Q158.34-22.21 163.97-28.03L163.97-28.03L163.97-28.03Q169.60-33.92 178.56-33.92ZM178.11-30.08L178.11-30.08L178.11-30.08Q175.74-30.08 174.46-27.52L174.46-27.52L174.46-27.52Q173.18-24.96 171.87-18.62L171.87-18.62L171.87-18.62Q170.56-12.29 170.56-6.59L170.56-6.59L170.56-6.59Q170.56-2.69 172.86-2.69L172.86-2.69L172.86-2.69Q174.91-2.69 176.35-4.74L176.35-4.74L176.35-4.74Q177.79-6.78 178.37-10.18L178.37-10.18L181.82-28.93L181.82-28.93Q180.48-30.08 178.11-30.08ZM218.94-2.69L218.94-2.69L218.94-2.69Q215.87 1.28 208.26 1.28L208.26 1.28L208.26 1.28Q204.29 1.28 201.41-1.12L201.41-1.12L201.41-1.12Q198.53-3.52 198.53-6.98L198.53-6.98L198.53-6.98Q198.53-8.90 198.72-9.86L198.72-9.86L203.01-32.64L216-33.92L211.33-9.22L211.33-9.22Q211.07-7.81 211.07-6.98L211.07-6.98L211.07-6.98Q211.07-3.26 213.31-3.26L213.31-3.26L213.31-3.26Q215.81-3.26 217.60-6.66L217.60-6.66L217.60-6.66Q218.18-7.74 218.43-9.15L218.43-9.15L222.98-32.64L235.58-33.92L230.85-8.96L230.85-8.96Q230.66-8 230.66-6.98L230.66-6.98L230.66-6.98Q230.66-5.95 231.23-4.83L231.23-4.83L231.23-4.83Q231.81-3.71 233.66-3.46L233.66-3.46L233.66-3.46Q233.28-1.92 231.94-0.90L231.94-0.90L231.94-0.90Q229.12 1.28 226.08 1.28L226.08 1.28L226.08 1.28Q223.04 1.28 221.25 0.19L221.25 0.19L221.25 0.19Q219.46-0.90 218.94-2.69ZM270.21-26.62L270.21-26.62L270.21-26.62Q270.21-23.94 267.97-22.27L267.97-22.27L267.97-22.27Q265.73-20.61 262.08-20.61L262.08-20.61L262.08-20.61Q260.54-20.61 259.65-21.06L259.65-21.06L259.65-21.06Q260.35-22.72 260.58-24.80L260.58-24.80L260.58-24.80Q260.80-26.88 260.80-27.46L260.80-27.46L260.80-27.46Q260.80-30.14 258.94-30.14L258.94-30.14L258.94-30.14Q257.66-30.14 256.22-28.54L256.22-28.54L256.22-28.54Q254.78-26.94 253.57-24.45L253.57-24.45L253.57-24.45Q250.88-18.69 250.88-12.86L250.88-12.86L250.88-12.86Q250.88-9.66 252.10-8.22L252.10-8.22L252.10-8.22Q253.31-6.78 256-6.78L256-6.78L256-6.78Q259.71-6.78 262.66-9.86L262.66-9.86L262.66-9.86Q263.49-10.82 263.94-11.90L263.94-11.90L263.94-11.90Q266.37-10.62 266.37-7.10L266.37-7.10L266.37-7.10Q266.37-3.52 262.40-1.15L262.40-1.15L262.40-1.15Q258.30 1.28 251.78 1.28L251.78 1.28L251.78 1.28Q238.78 1.28 238.78-12.48L238.78-12.48L238.78-12.48Q238.78-22.53 244.48-28.29L244.48-28.29L244.48-28.29Q249.98-33.92 260.10-33.92L260.10-33.92L260.10-33.92Q270.21-33.92 270.21-26.62ZM272.96-6.40L272.96-6.40L272.96-6.40Q272.96-8.13 273.86-12.48L273.86-12.48L277.25-29.76L273.47-29.76L273.73-31.68L273.73-31.68Q281.41-33.98 288.83-39.62L288.83-39.62L291.90-39.62L290.37-32.64L295.36-32.64L294.78-29.76L289.86-29.76L286.59-12.48L286.59-12.48Q285.76-8.51 285.76-7.17L285.76-7.17L285.76-7.17Q285.76-4.10 288.45-3.46L288.45-3.46L288.45-3.46Q287.81-1.28 285.50 0L285.50 0L285.50 0Q283.20 1.28 279.94 1.28L279.94 1.28L279.94 1.28Q276.67 1.28 274.82-0.77L274.82-0.77L274.82-0.77Q272.96-2.82 272.96-6.40ZM310.40-3.52L310.40-3.52L310.40-3.52Q308.42 1.28 302.08 1.28L302.08 1.28L302.08 1.28Q298.82 1.28 296.77-0.96L296.77-0.96L296.77-0.96Q295.04-2.94 295.04-4.93L295.04-4.93L295.04-4.93Q295.04-10.11 297.41-20.22L297.41-20.22L299.78-32.64L312.77-33.92L308.86-13.70L308.86-13.70Q307.78-8.96 307.78-7.30L307.78-7.30L307.78-7.30Q307.78-3.65 310.40-3.52ZM300.93-41.54L300.93-41.54L300.93-41.54Q300.93-44.03 303.01-45.38L303.01-45.38L303.01-45.38Q305.09-46.72 308.10-46.72L308.10-46.72L308.10-46.72Q311.10-46.72 312.93-45.38L312.93-45.38L312.93-45.38Q314.75-44.03 314.75-41.54L314.75-41.54L314.75-41.54Q314.75-39.04 312.74-37.76L312.74-37.76L312.74-37.76Q310.72-36.48 307.71-36.48L307.71-36.48L307.71-36.48Q304.70-36.48 302.82-37.76L302.82-37.76L302.82-37.76Q300.93-39.04 300.93-41.54ZM329.79 1.28L329.79 1.28L329.79 1.28Q315.71 1.28 315.71-11.97L315.71-11.97L315.71-11.97Q315.71-21.38 320.90-27.46L320.90-27.46L320.90-27.46Q326.40-33.92 335.94-33.92L335.94-33.92L335.94-33.92Q342.85-33.92 346.37-30.72L346.37-30.72L346.37-30.72Q349.89-27.52 349.89-20.80L349.89-20.80L349.89-20.80Q349.89-10.56 344.38-4.61L344.38-4.61L344.38-4.61Q339.01 1.28 329.79 1.28ZM331.46-26.56L331.46-26.56L331.46-26.56Q330.69-24.83 330.08-22.24L330.08-22.24L330.08-22.24Q329.47-19.65 328.70-15.55L328.70-15.55L328.70-15.55Q327.94-11.46 327.94-6.40L327.94-6.40L327.94-6.40Q327.94-4.74 328.48-3.65L328.48-3.65L328.48-3.65Q329.02-2.56 330.50-2.56L330.50-2.56L330.50-2.56Q331.97-2.56 332.90-3.26L332.90-3.26L332.90-3.26Q333.82-3.97 334.53-5.63L334.53-5.63L334.53-5.63Q335.81-8.58 336.83-14.05L336.83-14.05L336.83-14.05Q337.86-19.52 337.95-21.89L337.95-21.89L337.95-21.89Q338.05-24.26 338.05-26.02L338.05-26.02L338.05-26.02Q338.05-27.78 337.54-28.93L337.54-28.93L337.54-28.93Q337.02-30.08 335.58-30.08L335.58-30.08L335.58-30.08Q334.14-30.08 333.18-29.18L333.18-29.18L333.18-29.18Q332.22-28.29 331.46-26.56ZM380.74 1.28L380.74 1.28L380.74 1.28Q372.99 1.28 372.99-4.74L372.99-4.74L372.99-4.74Q373.06-6.40 373.57-9.22L373.57-9.22L374.72-15.10L374.72-15.10Q376.45-23.42 376.45-25.28L376.45-25.28L376.45-25.28Q376.45-28.99 374.27-28.99L374.27-28.99L374.27-28.99Q370.62-28.99 368.70-19.46L368.70-19.46L364.93 0L352.06 1.28L358.72-32.70L369.22-33.92L368.19-27.65L368.19-27.65Q371.20-33.92 380.42-33.92L380.42-33.92L380.42-33.92Q384.90-33.92 386.78-32.03L386.78-32.03L386.78-32.03Q388.67-30.14 388.67-25.92L388.67-25.92L388.67-25.92Q388.67-21.95 386.62-12.67L386.62-12.67L386.62-12.67Q385.66-8.51 385.66-6.94L385.66-6.94L385.66-6.94Q385.66-5.38 386.53-4.48L386.53-4.48L386.53-4.48Q387.39-3.58 388.67-3.46L388.67-3.46L388.67-3.46Q388.03-1.28 385.82 0L385.82 0L385.82 0Q383.62 1.28 380.74 1.28Z" fill="none" stroke="#fff" stroke-width="2.1"></path></g></g></g><style>text {
  font-size: 64px;
  font-family: Arial Black;
  dominant-baseline: central;
  text-anchor: middle;
}</style></svg>