<svg width="683.5624267578124px" height="121.39999999999999px" xmlns="http://www.w3.org/2000/svg" viewBox="-91.78121337890622 14.300000000000004 683.5624267578124 121.39999999999999" style="background: none;" preserveAspectRatio="xMidYMid"><defs><filter id="editing-vintage" x="-100%" y="-100%" width="300%" height="300%"><feConvolveMatrix in="SourceGraphic" result="extrude" order="9,9" divisor="1" kernelMatrix="1,0,0,0,0,0,0,0,0,0,1,0,0,0,0,0,0,0,0,0,1,0,0,0,0,0,0,0,0,0,1,0,0,0,0,0,0,0,0,0,1,0,0,0,0,0,0,0,0,0,1,0,0,0,0,0,0,0,0,0,1,0,0,0,0,0,0,0,0,0,1,0,0,0,0,0,0,0,0,0,1"> </feConvolveMatrix><feFlood flood-color="#900" result="flood-extrude"></feFlood><feComposite operator="in" in="flood-extrude" in2="extrude" result="extrude-color"></feComposite><feOffset dx="5" dy="5" in="extrude-color" result="extrude-offset"></feOffset><feColorMatrix in="SourceGraphic" result="stroke" type="matrix" values="0 0 0 0 0 0 0 0 0 0 0 0 0 0 0 0 1 0 0 0 "></feColorMatrix><feColorMatrix in="SourceGraphic" result="fill" type="matrix" values="0 0 0 0 0 0 0 0 0 0 0 0 0 0 0 1 0 0 1 0 "></feColorMatrix><feConvolveMatrix in="stroke" result="inner-shadow" order="5,5" divisor="1" kernelMatrix="1 0 0 0 0 0 1 0 0 0 0 0 1 0 0 0 0 0 1 0 0 0 0 0 1 "></feConvolveMatrix><feOffset dx="1" dy="1" in="inner-shadow" result="offset"></feOffset><feComposite operator="in" in="offset" in2="SourceAlpha" result="comp"></feComposite><feFlood flood-color="#000" result="flood3"></feFlood><feComposite operator="in" in="flood3" in2="comp" result="comp2"></feComposite><feColorMatrix in="comp2" result="comp3" type="matrix" values="1 0 0 0 0 0 1 0 0 0 0 0 1 0 0 0 0 0 0.5 0 "></feColorMatrix><feFlood flood-color="#f00" result="flood1"></feFlood><feComposite operator="in" in="flood1" in2="fill" result="fill2"></feComposite><feFlood flood-color="#fff" result="flood2"></feFlood><feComposite operator="in" in="flood2" in2="stroke" result="stroke2"></feComposite><feMerge result="obj"><feMergeNode in="extrude-offset"></feMergeNode><feMergeNode in="fill2"></feMergeNode><feMergeNode in="comp3"></feMergeNode></feMerge><feConvolveMatrix in="SourceAlpha" result="shadow" order="9,9" divisor="1" kernelMatrix="1,0,0,0,0,0,0,0,0,0,1,0,0,0,0,0,0,0,0,0,1,0,0,0,0,0,0,0,0,0,1,0,0,0,0,0,0,0,0,0,1,0,0,0,0,0,0,0,0,0,1,0,0,0,0,0,0,0,0,0,1,0,0,0,0,0,0,0,0,0,1,0,0,0,0,0,0,0,0,0,1"></feConvolveMatrix><feOffset dx="15" dy="15" in="shadow" result="shadow-offset"></feOffset><feFlood flood-color="#444444" result="flood-shadow"></feFlood><feComposite operator="in" in="flood-shadow" in2="shadow-offset" result="shadow-color"></feComposite><feMerge><feMergeNode in="shadow-color"></feMergeNode><feMergeNode in="obj"></feMergeNode></feMerge></filter></defs><g transform="translate(-9,-9)"><g filter="url(#editing-vintage)"><g transform="translate(5.8674721121788025, 104.76000022888184)"><path d="M27.84-9.86L27.84-9.86L27.84-9.86Q29.06-8.32 29.06-5.34L29.06-5.34L29.06-5.34Q29.06-2.37 26.78-0.54L26.78-0.54L26.78-0.54Q24.51 1.28 20.54 1.28L20.54 1.28L20.54 1.28Q18.24 1.28 14.66 0.77L14.66 0.77L14.66 0.77Q7.62-0.32 5.60-0.32L5.60-0.32L5.60-0.32Q3.58-0.32 2.75-0.22L2.75-0.22L2.75-0.22Q1.92-0.13 0.58 0L0.58 0L8.32-42.24L22.34-42.24L15.94-7.04L15.94-7.04Q16.77-6.91 17.54-6.91L17.54-6.91L19.14-6.91L19.14-6.91Q24.51-6.91 27.84-9.86ZM59.26-10.82L59.26-10.82L59.26-10.82Q60.86-9.73 60.86-7.33L60.86-7.33L60.86-7.33Q60.86-4.93 59.65-3.39L59.65-3.39L59.65-3.39Q58.43-1.86 56.45-0.83L56.45-0.83L56.45-0.83Q52.35 1.28 47.94 1.28L47.94 1.28L47.94 1.28Q43.52 1.28 40.93 0.32L40.93 0.32L40.93 0.32Q38.34-0.64 36.61-2.43L36.61-2.43L36.61-2.43Q33.22-5.82 33.22-12.03L33.22-12.03L33.22-12.03Q33.22-21.70 38.46-27.58L38.46-27.58L38.46-27.58Q44.10-33.92 53.89-33.92L53.89-33.92L53.89-33.92Q59.97-33.92 62.98-31.36L62.98-31.36L62.98-31.36Q65.22-29.44 65.22-26.30L65.22-26.30L65.22-26.30Q65.22-15.04 45.76-15.04L45.76-15.04L45.76-15.04Q45.50-13.38 45.50-11.97L45.50-11.97L45.50-11.97Q45.50-9.02 46.82-7.90L46.82-7.90L46.82-7.90Q48.13-6.78 50.56-6.78L50.56-6.78L50.56-6.78Q52.99-6.78 55.58-7.90L55.58-7.90L55.58-7.90Q58.18-9.02 59.26-10.82ZM46.21-17.79L46.21-17.79L46.21-17.79Q50.75-17.79 53.38-20.61L53.38-20.61L53.38-20.61Q56-23.30 56-27.58L56-27.58L56-27.58Q56-29.06 55.46-29.86L55.46-29.86L55.46-29.86Q54.91-30.66 53.82-30.66L53.82-30.66L53.82-30.66Q52.74-30.66 51.81-30.24L51.81-30.24L51.81-30.24Q50.88-29.82 49.92-28.42L49.92-28.42L49.92-28.42Q47.55-25.22 46.21-17.79ZM68.42-6.40L68.42-6.40L68.42-6.40Q68.42-8.13 69.31-12.48L69.31-12.48L72.70-29.76L68.93-29.76L69.18-31.68L69.18-31.68Q76.86-33.98 84.29-39.62L84.29-39.62L87.36-39.62L85.82-32.64L90.82-32.64L90.24-29.76L85.31-29.76L82.05-12.48L82.05-12.48Q81.22-8.51 81.22-7.17L81.22-7.17L81.22-7.17Q81.22-4.10 83.90-3.46L83.90-3.46L83.90-3.46Q83.26-1.28 80.96 0L80.96 0L80.96 0Q78.66 1.28 75.39 1.28L75.39 1.28L75.39 1.28Q72.13 1.28 70.27-0.77L70.27-0.77L70.27-0.77Q68.42-2.82 68.42-6.40ZM100.42-29.50L93.63-29.50L93.63-29.50Q96-37.70 96.13-46.34L96.13-46.34L97.98-46.59L97.98-46.59Q98.94-46.72 99.65-46.72L99.65-46.72L99.65-46.72Q102.46-46.72 104-45.34L104-45.34L104-45.34Q105.54-43.97 105.54-41.54L105.54-41.54L105.54-41.54Q105.54-38.98 104.38-36.16L104.38-36.16L104.38-36.16Q102.34-31.17 100.42-29.50L100.42-29.50ZM123.90-22.46L123.90-22.46L123.90-22.46Q124.80-24.83 124.80-26.88L124.80-26.88L124.80-26.88Q124.80-30.66 121.73-30.66L121.73-30.66L121.73-30.66Q120.13-30.66 118.82-29.22L118.82-29.22L118.82-29.22Q117.50-27.78 117.50-25.98L117.50-25.98L117.50-25.98Q117.50-24.70 118.53-23.68L118.53-23.68L118.53-23.68Q120-22.27 123.78-19.97L123.78-19.97L123.78-19.97Q127.55-17.66 128.99-15.78L128.99-15.78L128.99-15.78Q130.43-13.89 130.43-11.30L130.43-11.30L130.43-11.30Q130.43-8.70 129.18-6.34L129.18-6.34L129.18-6.34Q127.94-3.97 125.70-2.30L125.70-2.30L125.70-2.30Q120.90 1.28 113.22 1.28L113.22 1.28L113.22 1.28Q109.06 1.28 105.86-0.90L105.86-0.90L105.86-0.90Q102.66-3.01 102.66-5.50L102.66-5.50L102.66-5.50Q102.66-8 104.48-9.47L104.48-9.47L104.48-9.47Q106.30-10.94 108.99-10.94L108.99-10.94L108.99-10.94Q111.68-10.94 113.34-9.92L113.34-9.92L113.34-9.92Q112.51-7.81 112.51-6.40L112.51-6.40L112.51-6.40Q112.51-2.18 116.10-2.18L116.10-2.18L116.10-2.18Q117.63-2.18 118.66-3.14L118.66-3.14L118.66-3.14Q119.68-4.10 119.68-5.76L119.68-5.76L119.68-5.76Q119.68-9.02 114.18-12.48L114.18-12.48L114.18-12.48Q109.70-15.42 108.67-16.58L108.67-16.58L108.67-16.58Q106.94-18.62 106.94-21.18L106.94-21.18L106.94-21.18Q106.94-23.74 108.16-26.18L108.16-26.18L108.16-26.18Q109.38-28.61 111.62-30.34L111.62-30.34L111.62-30.34Q116.29-33.92 124.42-33.92L124.42-33.92L124.42-33.92Q128.58-33.92 131.04-32.26L131.04-32.26L131.04-32.26Q133.50-30.59 133.50-27.78L133.50-27.78L133.50-27.78Q133.50-24.96 131.81-23.36L131.81-23.36L131.81-23.36Q130.11-21.76 127.04-21.76L127.04-21.76L127.04-21.76Q124.93-21.76 123.90-22.46ZM153.60-26.75L153.60-26.75L153.60-26.75Q155.78-29.82 159.07-31.87L159.07-31.87L159.07-31.87Q162.37-33.92 166.40-33.92L166.40-33.92L166.40-33.92Q170.43-33.92 172.35-32.64L172.35-32.64L184.90-33.92L180.54-9.34L180.54-9.34Q178.30 3.20 173.57 8.13L173.57 8.13L173.57 8.13Q169.02 12.80 160.19 12.80L160.19 12.80L160.19 12.80Q153.47 12.80 149.63 10.69L149.63 10.69L149.63 10.69Q145.79 8.58 145.79 5.06L145.79 5.06L145.79 5.06Q145.79 2.43 147.78 0.93L147.78 0.93L147.78 0.93Q149.76-0.58 152.83-0.58L152.83-0.58L152.83-0.58Q155.52-0.58 157.57 0.64L157.57 0.64L157.57 0.64Q158.78 1.28 159.36 2.18L159.36 2.18L159.36 2.18Q157.89 3.46 157.89 5.57L157.89 5.57L157.89 5.57Q157.89 8.32 160.45 8.32L160.45 8.32L160.45 8.32Q164.74 8.32 167.17-1.79L167.17-1.79L167.17-1.79Q167.87-4.54 168.45-7.30L168.45-7.30L168.45-7.30Q165.57-3.78 159.04-3.78L159.04-3.78L159.04-3.78Q154.50-3.78 151.87-5.95L151.87-5.95L151.87-5.95Q149.25-8.13 149.25-13.25L149.25-13.25L149.25-13.25Q149.25-16.45 150.34-20.06L150.34-20.06L150.34-20.06Q151.42-23.68 153.60-26.75ZM161.92-13.06L161.92-13.06L161.92-13.06Q161.92-8.70 164.16-8.70L164.16-8.70L164.16-8.70Q165.70-8.70 167.17-10.37L167.17-10.37L167.17-10.37Q168.32-11.71 168.77-13.70L168.77-13.70L172.03-30.14L172.03-30.14Q171.71-30.21 171.39-30.34L171.39-30.34L171.39-30.34Q170.75-30.59 169.92-30.59L169.92-30.59L169.92-30.59Q166.02-30.59 163.71-24.19L163.71-24.19L163.71-24.19Q161.92-19.20 161.92-13.06ZM213.31-10.82L213.31-10.82L213.31-10.82Q214.91-9.73 214.91-7.33L214.91-7.33L214.91-7.33Q214.91-4.93 213.70-3.39L213.70-3.39L213.70-3.39Q212.48-1.86 210.50-0.83L210.50-0.83L210.50-0.83Q206.40 1.28 201.98 1.28L201.98 1.28L201.98 1.28Q197.57 1.28 194.98 0.32L194.98 0.32L194.98 0.32Q192.38-0.64 190.66-2.43L190.66-2.43L190.66-2.43Q187.26-5.82 187.26-12.03L187.26-12.03L187.26-12.03Q187.26-21.70 192.51-27.58L192.51-27.58L192.51-27.58Q198.14-33.92 207.94-33.92L207.94-33.92L207.94-33.92Q214.02-33.92 217.02-31.36L217.02-31.36L217.02-31.36Q219.26-29.44 219.26-26.30L219.26-26.30L219.26-26.30Q219.26-15.04 199.81-15.04L199.81-15.04L199.81-15.04Q199.55-13.38 199.55-11.97L199.55-11.97L199.55-11.97Q199.55-9.02 200.86-7.90L200.86-7.90L200.86-7.90Q202.18-6.78 204.61-6.78L204.61-6.78L204.61-6.78Q207.04-6.78 209.63-7.90L209.63-7.90L209.63-7.90Q212.22-9.02 213.31-10.82ZM200.26-17.79L200.26-17.79L200.26-17.79Q204.80-17.79 207.42-20.61L207.42-20.61L207.42-20.61Q210.05-23.30 210.05-27.58L210.05-27.58L210.05-27.58Q210.05-29.06 209.50-29.86L209.50-29.86L209.50-29.86Q208.96-30.66 207.87-30.66L207.87-30.66L207.87-30.66Q206.78-30.66 205.86-30.24L205.86-30.24L205.86-30.24Q204.93-29.82 203.97-28.42L203.97-28.42L203.97-28.42Q201.60-25.22 200.26-17.79ZM222.46-6.40L222.46-6.40L222.46-6.40Q222.46-8.13 223.36-12.48L223.36-12.48L226.75-29.76L222.98-29.76L223.23-31.68L223.23-31.68Q230.91-33.98 238.34-39.62L238.34-39.62L241.41-39.62L239.87-32.64L244.86-32.64L244.29-29.76L239.36-29.76L236.10-12.48L236.10-12.48Q235.26-8.51 235.26-7.17L235.26-7.17L235.26-7.17Q235.26-4.10 237.95-3.46L237.95-3.46L237.95-3.46Q237.31-1.28 235.01 0L235.01 0L235.01 0Q232.70 1.28 229.44 1.28L229.44 1.28L229.44 1.28Q226.18 1.28 224.32-0.77L224.32-0.77L224.32-0.77Q222.46-2.82 222.46-6.40ZM282.69-29.57L282.69-29.57L282.69-29.57Q283.65-31.49 283.65-33.28L283.65-33.28L283.65-33.28Q283.65-35.07 283.46-36.06L283.46-36.06L283.46-36.06Q283.26-37.06 282.82-37.82L282.82-37.82L282.82-37.82Q281.86-39.49 279.94-39.49L279.94-39.49L279.94-39.49Q277.57-39.49 275.65-37.76L275.65-37.76L275.65-37.76Q273.60-35.97 273.60-33.15L273.60-33.15L273.60-33.15Q273.60-31.36 274.85-29.98L274.85-29.98L274.85-29.98Q276.10-28.61 278.02-27.33L278.02-27.33L278.02-27.33Q279.94-26.05 282.11-24.77L282.11-24.77L282.11-24.77Q284.29-23.49 286.21-21.95L286.21-21.95L286.21-21.95Q290.62-18.43 290.62-13.70L290.62-13.70L290.62-13.70Q290.62-10.50 288.93-7.78L288.93-7.78L288.93-7.78Q287.23-5.06 284.42-3.07L284.42-3.07L284.42-3.07Q278.27 1.28 270.14 1.28L270.14 1.28L270.14 1.28Q263.55 1.28 260.16-0.86L260.16-0.86L260.16-0.86Q256.77-3.01 256.77-6.27L256.77-6.27L256.77-6.27Q256.77-12.10 261.31-13.57L261.31-13.57L261.31-13.57Q262.59-14.02 264.54-14.02L264.54-14.02L264.54-14.02Q266.50-14.02 268.74-13.18L268.74-13.18L268.74-13.18Q267.71-10.56 267.71-8.19L267.71-8.19L267.71-8.19Q267.71-3.07 271.36-3.07L271.36-3.07L271.36-3.07Q273.73-3.07 275.68-4.80L275.68-4.80L275.68-4.80Q277.63-6.53 277.63-8.48L277.63-8.48L277.63-8.48Q277.63-10.43 276.38-11.84L276.38-11.84L276.38-11.84Q275.14-13.25 273.28-14.37L273.28-14.37L273.28-14.37Q271.42-15.49 269.28-16.58L269.28-16.58L269.28-16.58Q267.14-17.66 265.28-19.20L265.28-19.20L265.28-19.20Q260.93-22.72 260.93-28.35L260.93-28.35L260.93-28.35Q260.93-32 262.72-34.85L262.72-34.85L262.72-34.85Q264.51-37.70 267.39-39.62L267.39-39.62L267.39-39.62Q273.15-43.52 280.22-43.52L280.22-43.52L280.22-43.52Q287.30-43.52 290.72-41.41L290.72-41.41L290.72-41.41Q294.14-39.30 294.14-35.71L294.14-35.71L294.14-35.71Q294.14-32.58 291.71-30.59L291.71-30.59L291.71-30.59Q289.60-28.93 287.04-28.93L287.04-28.93L287.04-28.93Q284.48-28.93 282.69-29.57ZM296.51-6.40L296.51-6.40L296.51-6.40Q296.51-8.13 297.41-12.48L297.41-12.48L300.80-29.76L297.02-29.76L297.28-31.68L297.28-31.68Q304.96-33.98 312.38-39.62L312.38-39.62L315.46-39.62L313.92-32.64L318.91-32.64L318.34-29.76L313.41-29.76L310.14-12.48L310.14-12.48Q309.31-8.51 309.31-7.17L309.31-7.17L309.31-7.17Q309.31-4.10 312-3.46L312-3.46L312-3.46Q311.36-1.28 309.06 0L309.06 0L309.06 0Q306.75 1.28 303.49 1.28L303.49 1.28L303.49 1.28Q300.22 1.28 298.37-0.77L298.37-0.77L298.37-0.77Q296.51-2.82 296.51-6.40ZM321.12-1.92L321.12-1.92L321.12-1.92Q319.62-3.58 318.94-6.21L318.94-6.21L318.94-6.21Q318.27-8.83 318.27-13.12L318.27-13.12L318.27-13.12Q318.27-17.41 319.74-21.31L319.74-21.31L319.74-21.31Q321.22-25.22 323.90-28.03L323.90-28.03L323.90-28.03Q329.41-33.92 338.50-33.92L338.50-33.92L338.50-33.92Q341.76-33.92 344.13-32.83L344.13-32.83L355.07-33.92L350.34-8.96L350.34-8.96Q350.14-8.19 350.14-6.78L350.14-6.78L350.14-6.78Q350.14-5.38 351.01-4.48L351.01-4.48L351.01-4.48Q351.87-3.58 353.15-3.46L353.15-3.46L353.15-3.46Q352.51-1.28 350.18 0L350.18 0L350.18 0Q347.84 1.28 345.22 1.28L345.22 1.28L345.22 1.28Q342.59 1.28 340.83 0.29L340.83 0.29L340.83 0.29Q339.07-0.70 338.56-2.37L338.56-2.37L338.56-2.37Q337.54-0.77 335.36 0.26L335.36 0.26L335.36 0.26Q333.18 1.28 330.27 1.28L330.27 1.28L330.27 1.28Q327.36 1.28 324.99 0.51L324.99 0.51L324.99 0.51Q322.62-0.26 321.12-1.92ZM334.62-27.90L334.62-27.90L334.62-27.90Q333.89-26.75 333.25-24.80L333.25-24.80L333.25-24.80Q332.61-22.85 331.55-17.63L331.55-17.63L331.55-17.63Q330.50-12.42 330.50-8.70L330.50-8.70L330.50-8.70Q330.50-4.99 331.07-3.90L331.07-3.90L331.07-3.90Q331.65-2.82 332.67-2.82L332.67-2.82L332.67-2.82Q334.72-2.82 336.22-4.77L336.22-4.77L336.22-4.77Q337.73-6.72 338.30-10.18L338.30-10.18L341.70-28.93L341.70-28.93Q340.35-30.08 338.78-30.08L338.78-30.08L338.78-30.08Q337.22-30.08 336.29-29.57L336.29-29.57L336.29-29.57Q335.36-29.06 334.62-27.90ZM378.56-17.98L378.56-17.98L378.56-17.98Q380.86-22.08 380.86-26.24L380.86-26.24L380.86-26.24Q380.86-28.99 378.88-28.99L378.88-28.99L378.88-28.99Q377.34-28.99 375.74-26.37L375.74-26.37L375.74-26.37Q374.08-23.74 373.57-20.35L373.57-20.35L370.24 0L356.99 1.28L363.52-32.64L374.08-33.92L372.93-27.46L372.93-27.46Q376.06-33.92 383.10-33.92L383.10-33.92L383.10-33.92Q386.82-33.92 388.83-32L388.83-32L388.83-32Q390.85-30.08 390.85-26.14L390.85-26.14L390.85-26.14Q390.85-22.21 388.26-19.71L388.26-19.71L388.26-19.71Q385.66-17.22 381.25-17.22L381.25-17.22L381.25-17.22Q379.33-17.22 378.56-17.98ZM392.90-6.40L392.90-6.40L392.90-6.40Q392.90-8.13 393.79-12.48L393.79-12.48L397.18-29.76L393.41-29.76L393.66-31.68L393.66-31.68Q401.34-33.98 408.77-39.62L408.77-39.62L411.84-39.62L410.30-32.64L415.30-32.64L414.72-29.76L409.79-29.76L406.53-12.48L406.53-12.48Q405.70-8.51 405.70-7.17L405.70-7.17L405.70-7.17Q405.70-4.10 408.38-3.46L408.38-3.46L408.38-3.46Q407.74-1.28 405.44 0L405.44 0L405.44 0Q403.14 1.28 399.87 1.28L399.87 1.28L399.87 1.28Q396.61 1.28 394.75-0.77L394.75-0.77L394.75-0.77Q392.90-2.82 392.90-6.40ZM440.64-10.82L440.64-10.82L440.64-10.82Q442.24-9.73 442.24-7.33L442.24-7.33L442.24-7.33Q442.24-4.93 441.02-3.39L441.02-3.39L441.02-3.39Q439.81-1.86 437.82-0.83L437.82-0.83L437.82-0.83Q433.73 1.28 429.31 1.28L429.31 1.28L429.31 1.28Q424.90 1.28 422.30 0.32L422.30 0.32L422.30 0.32Q419.71-0.64 417.98-2.43L417.98-2.43L417.98-2.43Q414.59-5.82 414.59-12.03L414.59-12.03L414.59-12.03Q414.59-21.70 419.84-27.58L419.84-27.58L419.84-27.58Q425.47-33.92 435.26-33.92L435.26-33.92L435.26-33.92Q441.34-33.92 444.35-31.36L444.35-31.36L444.35-31.36Q446.59-29.44 446.59-26.30L446.59-26.30L446.59-26.30Q446.59-15.04 427.14-15.04L427.14-15.04L427.14-15.04Q426.88-13.38 426.88-11.97L426.88-11.97L426.88-11.97Q426.88-9.02 428.19-7.90L428.19-7.90L428.19-7.90Q429.50-6.78 431.94-6.78L431.94-6.78L431.94-6.78Q434.37-6.78 436.96-7.90L436.96-7.90L436.96-7.90Q439.55-9.02 440.64-10.82ZM427.58-17.79L427.58-17.79L427.58-17.79Q432.13-17.79 434.75-20.61L434.75-20.61L434.75-20.61Q437.38-23.30 437.38-27.58L437.38-27.58L437.38-27.58Q437.38-29.06 436.83-29.86L436.83-29.86L436.83-29.86Q436.29-30.66 435.20-30.66L435.20-30.66L435.20-30.66Q434.11-30.66 433.18-30.24L433.18-30.24L433.18-30.24Q432.26-29.82 431.30-28.42L431.30-28.42L431.30-28.42Q428.93-25.22 427.58-17.79ZM468.93-33.92L468.93-33.92L468.93-33.92Q471.23-33.92 473.02-33.41L473.02-33.41L473.02-33.41Q473.09-33.66 473.22-34.37L473.22-34.37L473.54-36.35L473.54-36.35Q473.79-37.63 474.18-39.74L474.18-39.74L475.20-44.80L487.94-46.08L480.83-8.96L480.83-8.96Q480.77-8.58 480.77-7.94L480.77-7.94L480.77-6.91L480.77-6.91Q480.77-5.50 481.47-4.45L481.47-4.45L481.47-4.45Q482.18-3.39 483.33-3.39L483.33-3.39L483.33-3.39Q482.05-0.38 478.14 0.90L478.14 0.90L478.14 0.90Q476.80 1.28 474.91 1.28L474.91 1.28L474.91 1.28Q473.02 1.28 471.30 0.29L471.30 0.29L471.30 0.29Q469.57-0.70 469.06-2.37L469.06-2.37L469.06-2.37Q468.03-0.70 465.98 0.29L465.98 0.29L465.98 0.29Q463.94 1.28 460.96 1.28L460.96 1.28L460.96 1.28Q457.98 1.28 455.52 0.51L455.52 0.51L455.52 0.51Q453.06-0.26 451.52-1.92L451.52-1.92L451.52-1.92Q448.70-5.18 448.70-12.61L448.70-12.61L448.70-12.61Q448.70-22.21 454.34-28.03L454.34-28.03L454.34-28.03Q459.97-33.92 468.93-33.92ZM468.48-30.08L468.48-30.08L468.48-30.08Q466.11-30.08 464.83-27.52L464.83-27.52L464.83-27.52Q463.55-24.96 462.24-18.62L462.24-18.62L462.24-18.62Q460.93-12.29 460.93-6.59L460.93-6.59L460.93-6.59Q460.93-2.69 463.23-2.69L463.23-2.69L463.23-2.69Q465.28-2.69 466.72-4.74L466.72-4.74L466.72-4.74Q468.16-6.78 468.74-10.18L468.74-10.18L472.19-28.93L472.19-28.93Q470.85-30.08 468.48-30.08Z" fill="#f00" stroke="#0f0" stroke-width="1.8"></path></g></g><g><g transform="translate(5.864689290523529, 104.76000022888184)"><path d="M27.84-9.86L27.84-9.86L27.84-9.86Q29.06-8.32 29.06-5.34L29.06-5.34L29.06-5.34Q29.06-2.37 26.78-0.54L26.78-0.54L26.78-0.54Q24.51 1.28 20.54 1.28L20.54 1.28L20.54 1.28Q18.24 1.28 14.66 0.77L14.66 0.77L14.66 0.77Q7.62-0.32 5.60-0.32L5.60-0.32L5.60-0.32Q3.58-0.32 2.75-0.22L2.75-0.22L2.75-0.22Q1.92-0.13 0.58 0L0.58 0L8.32-42.24L22.34-42.24L15.94-7.04L15.94-7.04Q16.77-6.91 17.54-6.91L17.54-6.91L19.14-6.91L19.14-6.91Q24.51-6.91 27.84-9.86ZM59.26-10.82L59.26-10.82L59.26-10.82Q60.86-9.73 60.86-7.33L60.86-7.33L60.86-7.33Q60.86-4.93 59.65-3.39L59.65-3.39L59.65-3.39Q58.43-1.86 56.45-0.83L56.45-0.83L56.45-0.83Q52.35 1.28 47.94 1.28L47.94 1.28L47.94 1.28Q43.52 1.28 40.93 0.32L40.93 0.32L40.93 0.32Q38.34-0.64 36.61-2.43L36.61-2.43L36.61-2.43Q33.22-5.82 33.22-12.03L33.22-12.03L33.22-12.03Q33.22-21.70 38.46-27.58L38.46-27.58L38.46-27.58Q44.10-33.92 53.89-33.92L53.89-33.92L53.89-33.92Q59.97-33.92 62.98-31.36L62.98-31.36L62.98-31.36Q65.22-29.44 65.22-26.30L65.22-26.30L65.22-26.30Q65.22-15.04 45.76-15.04L45.76-15.04L45.76-15.04Q45.50-13.38 45.50-11.97L45.50-11.97L45.50-11.97Q45.50-9.02 46.82-7.90L46.82-7.90L46.82-7.90Q48.13-6.78 50.56-6.78L50.56-6.78L50.56-6.78Q52.99-6.78 55.58-7.90L55.58-7.90L55.58-7.90Q58.18-9.02 59.26-10.82ZM46.21-17.79L46.21-17.79L46.21-17.79Q50.75-17.79 53.38-20.61L53.38-20.61L53.38-20.61Q56-23.30 56-27.58L56-27.58L56-27.58Q56-29.06 55.46-29.86L55.46-29.86L55.46-29.86Q54.91-30.66 53.82-30.66L53.82-30.66L53.82-30.66Q52.74-30.66 51.81-30.24L51.81-30.24L51.81-30.24Q50.88-29.82 49.92-28.42L49.92-28.42L49.92-28.42Q47.55-25.22 46.21-17.79ZM68.42-6.40L68.42-6.40L68.42-6.40Q68.42-8.13 69.31-12.48L69.31-12.48L72.70-29.76L68.93-29.76L69.18-31.68L69.18-31.68Q76.86-33.98 84.29-39.62L84.29-39.62L87.36-39.62L85.82-32.64L90.82-32.64L90.24-29.76L85.31-29.76L82.05-12.48L82.05-12.48Q81.22-8.51 81.22-7.17L81.22-7.17L81.22-7.17Q81.22-4.10 83.90-3.46L83.90-3.46L83.90-3.46Q83.26-1.28 80.96 0L80.96 0L80.96 0Q78.66 1.28 75.39 1.28L75.39 1.28L75.39 1.28Q72.13 1.28 70.27-0.77L70.27-0.77L70.27-0.77Q68.42-2.82 68.42-6.40ZM100.42-29.50L93.63-29.50L93.63-29.50Q96-37.70 96.13-46.34L96.13-46.34L97.98-46.59L97.98-46.59Q98.94-46.72 99.65-46.72L99.65-46.72L99.65-46.72Q102.46-46.72 104-45.34L104-45.34L104-45.34Q105.54-43.97 105.54-41.54L105.54-41.54L105.54-41.54Q105.54-38.98 104.38-36.16L104.38-36.16L104.38-36.16Q102.34-31.17 100.42-29.50L100.42-29.50ZM123.90-22.46L123.90-22.46L123.90-22.46Q124.80-24.83 124.80-26.88L124.80-26.88L124.80-26.88Q124.80-30.66 121.73-30.66L121.73-30.66L121.73-30.66Q120.13-30.66 118.82-29.22L118.82-29.22L118.82-29.22Q117.50-27.78 117.50-25.98L117.50-25.98L117.50-25.98Q117.50-24.70 118.53-23.68L118.53-23.68L118.53-23.68Q120-22.27 123.78-19.97L123.78-19.97L123.78-19.97Q127.55-17.66 128.99-15.78L128.99-15.78L128.99-15.78Q130.43-13.89 130.43-11.30L130.43-11.30L130.43-11.30Q130.43-8.70 129.18-6.34L129.18-6.34L129.18-6.34Q127.94-3.97 125.70-2.30L125.70-2.30L125.70-2.30Q120.90 1.28 113.22 1.28L113.22 1.28L113.22 1.28Q109.06 1.28 105.86-0.90L105.86-0.90L105.86-0.90Q102.66-3.01 102.66-5.50L102.66-5.50L102.66-5.50Q102.66-8 104.48-9.47L104.48-9.47L104.48-9.47Q106.30-10.94 108.99-10.94L108.99-10.94L108.99-10.94Q111.68-10.94 113.34-9.92L113.34-9.92L113.34-9.92Q112.51-7.81 112.51-6.40L112.51-6.40L112.51-6.40Q112.51-2.18 116.10-2.18L116.10-2.18L116.10-2.18Q117.63-2.18 118.66-3.14L118.66-3.14L118.66-3.14Q119.68-4.10 119.68-5.76L119.68-5.76L119.68-5.76Q119.68-9.02 114.18-12.48L114.18-12.48L114.18-12.48Q109.70-15.42 108.67-16.58L108.67-16.58L108.67-16.58Q106.94-18.62 106.94-21.18L106.94-21.18L106.94-21.18Q106.94-23.74 108.16-26.18L108.16-26.18L108.16-26.18Q109.38-28.61 111.62-30.34L111.62-30.34L111.62-30.34Q116.29-33.92 124.42-33.92L124.42-33.92L124.42-33.92Q128.58-33.92 131.04-32.26L131.04-32.26L131.04-32.26Q133.50-30.59 133.50-27.78L133.50-27.78L133.50-27.78Q133.50-24.96 131.81-23.36L131.81-23.36L131.81-23.36Q130.11-21.76 127.04-21.76L127.04-21.76L127.04-21.76Q124.93-21.76 123.90-22.46ZM153.60-26.75L153.60-26.75L153.60-26.75Q155.78-29.82 159.07-31.87L159.07-31.87L159.07-31.87Q162.37-33.92 166.40-33.92L166.40-33.92L166.40-33.92Q170.43-33.92 172.35-32.64L172.35-32.64L184.90-33.92L180.54-9.34L180.54-9.34Q178.30 3.20 173.57 8.13L173.57 8.13L173.57 8.13Q169.02 12.80 160.19 12.80L160.19 12.80L160.19 12.80Q153.47 12.80 149.63 10.69L149.63 10.69L149.63 10.69Q145.79 8.58 145.79 5.06L145.79 5.06L145.79 5.06Q145.79 2.43 147.78 0.93L147.78 0.93L147.78 0.93Q149.76-0.58 152.83-0.58L152.83-0.58L152.83-0.58Q155.52-0.58 157.57 0.64L157.57 0.64L157.57 0.64Q158.78 1.28 159.36 2.18L159.36 2.18L159.36 2.18Q157.89 3.46 157.89 5.57L157.89 5.57L157.89 5.57Q157.89 8.32 160.45 8.32L160.45 8.32L160.45 8.32Q164.74 8.32 167.17-1.79L167.17-1.79L167.17-1.79Q167.87-4.54 168.45-7.30L168.45-7.30L168.45-7.30Q165.57-3.78 159.04-3.78L159.04-3.78L159.04-3.78Q154.50-3.78 151.87-5.95L151.87-5.95L151.87-5.95Q149.25-8.13 149.25-13.25L149.25-13.25L149.25-13.25Q149.25-16.45 150.34-20.06L150.34-20.06L150.34-20.06Q151.42-23.68 153.60-26.75ZM161.92-13.06L161.92-13.06L161.92-13.06Q161.92-8.70 164.16-8.70L164.16-8.70L164.16-8.70Q165.70-8.70 167.17-10.37L167.17-10.37L167.17-10.37Q168.32-11.71 168.77-13.70L168.77-13.70L172.03-30.14L172.03-30.14Q171.71-30.21 171.39-30.34L171.39-30.34L171.39-30.34Q170.75-30.59 169.92-30.59L169.92-30.59L169.92-30.59Q166.02-30.59 163.71-24.19L163.71-24.19L163.71-24.19Q161.92-19.20 161.92-13.06ZM213.31-10.82L213.31-10.82L213.31-10.82Q214.91-9.73 214.91-7.33L214.91-7.33L214.91-7.33Q214.91-4.93 213.70-3.39L213.70-3.39L213.70-3.39Q212.48-1.86 210.50-0.83L210.50-0.83L210.50-0.83Q206.40 1.28 201.98 1.28L201.98 1.28L201.98 1.28Q197.57 1.28 194.98 0.32L194.98 0.32L194.98 0.32Q192.38-0.64 190.66-2.43L190.66-2.43L190.66-2.43Q187.26-5.82 187.26-12.03L187.26-12.03L187.26-12.03Q187.26-21.70 192.51-27.58L192.51-27.58L192.51-27.58Q198.14-33.92 207.94-33.92L207.94-33.92L207.94-33.92Q214.02-33.92 217.02-31.36L217.02-31.36L217.02-31.36Q219.26-29.44 219.26-26.30L219.26-26.30L219.26-26.30Q219.26-15.04 199.81-15.04L199.81-15.04L199.81-15.04Q199.55-13.38 199.55-11.97L199.55-11.97L199.55-11.97Q199.55-9.02 200.86-7.90L200.86-7.90L200.86-7.90Q202.18-6.78 204.61-6.78L204.61-6.78L204.61-6.78Q207.04-6.78 209.63-7.90L209.63-7.90L209.63-7.90Q212.22-9.02 213.31-10.82ZM200.26-17.79L200.26-17.79L200.26-17.79Q204.80-17.79 207.42-20.61L207.42-20.61L207.42-20.61Q210.05-23.30 210.05-27.58L210.05-27.58L210.05-27.58Q210.05-29.06 209.50-29.86L209.50-29.86L209.50-29.86Q208.96-30.66 207.87-30.66L207.87-30.66L207.87-30.66Q206.78-30.66 205.86-30.24L205.86-30.24L205.86-30.24Q204.93-29.82 203.97-28.42L203.97-28.42L203.97-28.42Q201.60-25.22 200.26-17.79ZM222.46-6.40L222.46-6.40L222.46-6.40Q222.46-8.13 223.36-12.48L223.36-12.48L226.75-29.76L222.98-29.76L223.23-31.68L223.23-31.68Q230.91-33.98 238.34-39.62L238.34-39.62L241.41-39.62L239.87-32.64L244.86-32.64L244.29-29.76L239.36-29.76L236.10-12.48L236.10-12.48Q235.26-8.51 235.26-7.17L235.26-7.17L235.26-7.17Q235.26-4.10 237.95-3.46L237.95-3.46L237.95-3.46Q237.31-1.28 235.01 0L235.01 0L235.01 0Q232.70 1.28 229.44 1.28L229.44 1.28L229.44 1.28Q226.18 1.28 224.32-0.77L224.32-0.77L224.32-0.77Q222.46-2.82 222.46-6.40ZM282.69-29.57L282.69-29.57L282.69-29.57Q283.65-31.49 283.65-33.28L283.65-33.28L283.65-33.28Q283.65-35.07 283.46-36.06L283.46-36.06L283.46-36.06Q283.26-37.06 282.82-37.82L282.82-37.82L282.82-37.82Q281.86-39.49 279.94-39.49L279.94-39.49L279.94-39.49Q277.57-39.49 275.65-37.76L275.65-37.76L275.65-37.76Q273.60-35.97 273.60-33.15L273.60-33.15L273.60-33.15Q273.60-31.36 274.85-29.98L274.85-29.98L274.85-29.98Q276.10-28.61 278.02-27.33L278.02-27.33L278.02-27.33Q279.94-26.05 282.11-24.77L282.11-24.77L282.11-24.77Q284.29-23.49 286.21-21.95L286.21-21.95L286.21-21.95Q290.62-18.43 290.62-13.70L290.62-13.70L290.62-13.70Q290.62-10.50 288.93-7.78L288.93-7.78L288.93-7.78Q287.23-5.06 284.42-3.07L284.42-3.07L284.42-3.07Q278.27 1.28 270.14 1.28L270.14 1.28L270.14 1.28Q263.55 1.28 260.16-0.86L260.16-0.86L260.16-0.86Q256.77-3.01 256.77-6.27L256.77-6.27L256.77-6.27Q256.77-12.10 261.31-13.57L261.31-13.57L261.31-13.57Q262.59-14.02 264.54-14.02L264.54-14.02L264.54-14.02Q266.50-14.02 268.74-13.18L268.74-13.18L268.74-13.18Q267.71-10.56 267.71-8.19L267.71-8.19L267.71-8.19Q267.71-3.07 271.36-3.07L271.36-3.07L271.36-3.07Q273.73-3.07 275.68-4.80L275.68-4.80L275.68-4.80Q277.63-6.53 277.63-8.48L277.63-8.48L277.63-8.48Q277.63-10.43 276.38-11.84L276.38-11.84L276.38-11.84Q275.14-13.25 273.28-14.37L273.28-14.37L273.28-14.37Q271.42-15.49 269.28-16.58L269.28-16.58L269.28-16.58Q267.14-17.66 265.28-19.20L265.28-19.20L265.28-19.20Q260.93-22.72 260.93-28.35L260.93-28.35L260.93-28.35Q260.93-32 262.72-34.85L262.72-34.85L262.72-34.85Q264.51-37.70 267.39-39.62L267.39-39.62L267.39-39.62Q273.15-43.52 280.22-43.52L280.22-43.52L280.22-43.52Q287.30-43.52 290.72-41.41L290.72-41.41L290.72-41.41Q294.14-39.30 294.14-35.71L294.14-35.71L294.14-35.71Q294.14-32.58 291.71-30.59L291.71-30.59L291.71-30.59Q289.60-28.93 287.04-28.93L287.04-28.93L287.04-28.93Q284.48-28.93 282.69-29.57ZM296.51-6.40L296.51-6.40L296.51-6.40Q296.51-8.13 297.41-12.48L297.41-12.48L300.80-29.76L297.02-29.76L297.28-31.68L297.28-31.68Q304.96-33.98 312.38-39.62L312.38-39.62L315.46-39.62L313.92-32.64L318.91-32.64L318.34-29.76L313.41-29.76L310.14-12.48L310.14-12.48Q309.31-8.51 309.31-7.17L309.31-7.17L309.31-7.17Q309.31-4.10 312-3.46L312-3.46L312-3.46Q311.36-1.28 309.06 0L309.06 0L309.06 0Q306.75 1.28 303.49 1.28L303.49 1.28L303.49 1.28Q300.22 1.28 298.37-0.77L298.37-0.77L298.37-0.77Q296.51-2.82 296.51-6.40ZM321.12-1.92L321.12-1.92L321.12-1.92Q319.62-3.58 318.94-6.21L318.94-6.21L318.94-6.21Q318.27-8.83 318.27-13.12L318.27-13.12L318.27-13.12Q318.27-17.41 319.74-21.31L319.74-21.31L319.74-21.31Q321.22-25.22 323.90-28.03L323.90-28.03L323.90-28.03Q329.41-33.92 338.50-33.92L338.50-33.92L338.50-33.92Q341.76-33.92 344.13-32.83L344.13-32.83L355.07-33.92L350.34-8.96L350.34-8.96Q350.14-8.19 350.14-6.78L350.14-6.78L350.14-6.78Q350.14-5.38 351.01-4.48L351.01-4.48L351.01-4.48Q351.87-3.58 353.15-3.46L353.15-3.46L353.15-3.46Q352.51-1.28 350.18 0L350.18 0L350.18 0Q347.84 1.28 345.22 1.28L345.22 1.28L345.22 1.28Q342.59 1.28 340.83 0.29L340.83 0.29L340.83 0.29Q339.07-0.70 338.56-2.37L338.56-2.37L338.56-2.37Q337.54-0.77 335.36 0.26L335.36 0.26L335.36 0.26Q333.18 1.28 330.27 1.28L330.27 1.28L330.27 1.28Q327.36 1.28 324.99 0.51L324.99 0.51L324.99 0.51Q322.62-0.26 321.12-1.92ZM334.62-27.90L334.62-27.90L334.62-27.90Q333.89-26.75 333.25-24.80L333.25-24.80L333.25-24.80Q332.61-22.85 331.55-17.63L331.55-17.63L331.55-17.63Q330.50-12.42 330.50-8.70L330.50-8.70L330.50-8.70Q330.50-4.99 331.07-3.90L331.07-3.90L331.07-3.90Q331.65-2.82 332.67-2.82L332.67-2.82L332.67-2.82Q334.72-2.82 336.22-4.77L336.22-4.77L336.22-4.77Q337.73-6.72 338.30-10.18L338.30-10.18L341.70-28.93L341.70-28.93Q340.35-30.08 338.78-30.08L338.78-30.08L338.78-30.08Q337.22-30.08 336.29-29.57L336.29-29.57L336.29-29.57Q335.36-29.06 334.62-27.90ZM378.56-17.98L378.56-17.98L378.56-17.98Q380.86-22.08 380.86-26.24L380.86-26.24L380.86-26.24Q380.86-28.99 378.88-28.99L378.88-28.99L378.88-28.99Q377.34-28.99 375.74-26.37L375.74-26.37L375.74-26.37Q374.08-23.74 373.57-20.35L373.57-20.35L370.24 0L356.99 1.28L363.52-32.64L374.08-33.92L372.93-27.46L372.93-27.46Q376.06-33.92 383.10-33.92L383.10-33.92L383.10-33.92Q386.82-33.92 388.83-32L388.83-32L388.83-32Q390.85-30.08 390.85-26.14L390.85-26.14L390.85-26.14Q390.85-22.21 388.26-19.71L388.26-19.71L388.26-19.71Q385.66-17.22 381.25-17.22L381.25-17.22L381.25-17.22Q379.33-17.22 378.56-17.98ZM392.90-6.40L392.90-6.40L392.90-6.40Q392.90-8.13 393.79-12.48L393.79-12.48L397.18-29.76L393.41-29.76L393.66-31.68L393.66-31.68Q401.34-33.98 408.77-39.62L408.77-39.62L411.84-39.62L410.30-32.64L415.30-32.64L414.72-29.76L409.79-29.76L406.53-12.48L406.53-12.48Q405.70-8.51 405.70-7.17L405.70-7.17L405.70-7.17Q405.70-4.10 408.38-3.46L408.38-3.46L408.38-3.46Q407.74-1.28 405.44 0L405.44 0L405.44 0Q403.14 1.28 399.87 1.28L399.87 1.28L399.87 1.28Q396.61 1.28 394.75-0.77L394.75-0.77L394.75-0.77Q392.90-2.82 392.90-6.40ZM440.64-10.82L440.64-10.82L440.64-10.82Q442.24-9.73 442.24-7.33L442.24-7.33L442.24-7.33Q442.24-4.93 441.02-3.39L441.02-3.39L441.02-3.39Q439.81-1.86 437.82-0.83L437.82-0.83L437.82-0.83Q433.73 1.28 429.31 1.28L429.31 1.28L429.31 1.28Q424.90 1.28 422.30 0.32L422.30 0.32L422.30 0.32Q419.71-0.64 417.98-2.43L417.98-2.43L417.98-2.43Q414.59-5.82 414.59-12.03L414.59-12.03L414.59-12.03Q414.59-21.70 419.84-27.58L419.84-27.58L419.84-27.58Q425.47-33.92 435.26-33.92L435.26-33.92L435.26-33.92Q441.34-33.92 444.35-31.36L444.35-31.36L444.35-31.36Q446.59-29.44 446.59-26.30L446.59-26.30L446.59-26.30Q446.59-15.04 427.14-15.04L427.14-15.04L427.14-15.04Q426.88-13.38 426.88-11.97L426.88-11.97L426.88-11.97Q426.88-9.02 428.19-7.90L428.19-7.90L428.19-7.90Q429.50-6.78 431.94-6.78L431.94-6.78L431.94-6.78Q434.37-6.78 436.96-7.90L436.96-7.90L436.96-7.90Q439.55-9.02 440.64-10.82ZM427.58-17.79L427.58-17.79L427.58-17.79Q432.13-17.79 434.75-20.61L434.75-20.61L434.75-20.61Q437.38-23.30 437.38-27.58L437.38-27.58L437.38-27.58Q437.38-29.06 436.83-29.86L436.83-29.86L436.83-29.86Q436.29-30.66 435.20-30.66L435.20-30.66L435.20-30.66Q434.11-30.66 433.18-30.24L433.18-30.24L433.18-30.24Q432.26-29.82 431.30-28.42L431.30-28.42L431.30-28.42Q428.93-25.22 427.58-17.79ZM468.93-33.92L468.93-33.92L468.93-33.92Q471.23-33.92 473.02-33.41L473.02-33.41L473.02-33.41Q473.09-33.66 473.22-34.37L473.22-34.37L473.54-36.35L473.54-36.35Q473.79-37.63 474.18-39.74L474.18-39.74L475.20-44.80L487.94-46.08L480.83-8.96L480.83-8.96Q480.77-8.58 480.77-7.94L480.77-7.94L480.77-6.91L480.77-6.91Q480.77-5.50 481.47-4.45L481.47-4.45L481.47-4.45Q482.18-3.39 483.33-3.39L483.33-3.39L483.33-3.39Q482.05-0.38 478.14 0.90L478.14 0.90L478.14 0.90Q476.80 1.28 474.91 1.28L474.91 1.28L474.91 1.28Q473.02 1.28 471.30 0.29L471.30 0.29L471.30 0.29Q469.57-0.70 469.06-2.37L469.06-2.37L469.06-2.37Q468.03-0.70 465.98 0.29L465.98 0.29L465.98 0.29Q463.94 1.28 460.96 1.28L460.96 1.28L460.96 1.28Q457.98 1.28 455.52 0.51L455.52 0.51L455.52 0.51Q453.06-0.26 451.52-1.92L451.52-1.92L451.52-1.92Q448.70-5.18 448.70-12.61L448.70-12.61L448.70-12.61Q448.70-22.21 454.34-28.03L454.34-28.03L454.34-28.03Q459.97-33.92 468.93-33.92ZM468.48-30.08L468.48-30.08L468.48-30.08Q466.11-30.08 464.83-27.52L464.83-27.52L464.83-27.52Q463.55-24.96 462.24-18.62L462.24-18.62L462.24-18.62Q460.93-12.29 460.93-6.59L460.93-6.59L460.93-6.59Q460.93-2.69 463.23-2.69L463.23-2.69L463.23-2.69Q465.28-2.69 466.72-4.74L466.72-4.74L466.72-4.74Q468.16-6.78 468.74-10.18L468.74-10.18L472.19-28.93L472.19-28.93Q470.85-30.08 468.48-30.08Z" fill="none" stroke="#fff" stroke-width="2.1"></path></g></g></g><style>text {
  font-size: 64px;
  font-family: Arial Black;
  dominant-baseline: central;
  text-anchor: middle;
}</style></svg>